0
SECTION
2
HEADER
9
$INSUNITS
70
4
9
$ACADVER
1
AC1014
9
$HANDSEED
5
FFFF
0
ENDSEC
0
SECTION
2
TABLES
0
TABLE
2
VPORT
5
8
100
AcDbSymbolTable
0
ENDTAB
0
TABLE
2
LTYPE
5
5
100
AcDbSymbolTable
0
LTYPE
5
14
100
AcDbSymbolTableRecord
100
AcDbLinetypeTableRecord
2
BYBLOCK
70
0
0
LTYPE
5
15
100
AcDbSymbolTableRecord
100
AcDbLinetypeTableRecord
2
BYLAYER
70
0
0
LTYPE
5
16
100
AcDbSymbolTableRecord
100
AcDbLinetypeTableRecord
2
DASHED
70
0
3
Dashed __ __ __ __ __ __ __ __ __ __ __ __ __ _
72
65
73
2
40
0.75
49
0.5
74
0
49
-0.25
74
0
0
ENDTAB
0
TABLE
2
LAYER
5
2
100
AcDbSymbolTable
70
2
0
LAYER
5
50
100
AcDbSymbolTableRecord
100
AcDbLayerTableRecord
2
0
70
0
62
7
6
CONTINUOUS
0
ENDTAB
0
TABLE
2
STYLE
5
3
100
AcDbSymbolTable
70
1
0
STYLE
5
11
100
AcDbSymbolTableRecord
100
AcDbTextStyleTableRecord
2
STANDARD
70
0
0
ENDTAB
0
TABLE
2
VIEW
5
6
100
AcDbSymbolTable
70
0
0
ENDTAB
0
TABLE
2
UCS
5
7
100
AcDbSymbolTable
70
0
0
ENDTAB
0
TABLE
2
APPID
5
9
100
AcDbSymbolTable
70
2
0
APPID
5
12
100
AcDbSymbolTableRecord
100
AcDbRegAppTableRecord
2
ACAD
70
0
0
ENDTAB
0
TABLE
2
DIMSTYLE
5
A
100
AcDbSymbolTable
70
1
0
ENDTAB
0
TABLE
2
BLOCK_RECORD
5
1
100
AcDbSymbolTable
70
1
0
BLOCK_RECORD
5
1F
100
AcDbSymbolTableRecord
100
AcDbBlockTableRecord
2
*MODEL_SPACE
0
BLOCK_RECORD
5
1B
100
AcDbSymbolTableRecord
100
AcDbBlockTableRecord
2
*PAPER_SPACE
0
ENDTAB
0
ENDSEC
0
SECTION
2
BLOCKS
0
BLOCK
5
20
100
AcDbEntity
100
AcDbBlockBegin
2
*MODEL_SPACE
0
ENDBLK
5
21
100
AcDbEntity
100
AcDbBlockEnd
0
BLOCK
5
1C
100
AcDbEntity
100
AcDbBlockBegin
2
*PAPER_SPACE
0
ENDBLK
5
1D
100
AcDbEntity
100
AcDbBlockEnd
0
ENDSEC
0
SECTION
2
ENTITIES
0
LWPOLYLINE
5
100
100
AcDbEntity
8
0
100
AcDbPolyline
90
3
70
1
43
0.0
10
-100.11753082275391
20
-135.88352203369141
10
-108.34244728088379
20
-136.15180969238281
10
-101.32905960083008
20
-136.42292022705078
0
LWPOLYLINE
5
101
100
AcDbEntity
8
0
100
AcDbPolyline
90
90
70
1
43
0.0
10
-107.92099952697754
20
-168.45804214477539
10
-107.85094261169434
20
-168.53586196899414
10
-107.78648376464844
20
-168.61833572387695
10
-107.72793769836426
20
-168.70512008666992
10
-107.67559051513672
20
-168.79583358764648
10
-107.62969017028809
20
-168.8899040222168
10
-107.5904655456543
20
-168.98698806762695
10
-107.5581169128418
20
-169.08655166625977
10
-107.53278732299805
20
-169.18817520141602
10
-107.51461029052734
20
-169.2912483215332
10
-107.503662109375
20
-169.39538955688477
10
-107.50000953674316
20
-169.50002670288086
10
-107.503662109375
20
-169.60466384887695
10
-107.51461029052734
20
-169.70880508422852
10
-107.53278732299805
20
-169.8118782043457
10
-107.5581169128418
20
-169.9134635925293
10
-107.5904655456543
20
-170.01306533813477
10
-107.62969017028809
20
-170.11011123657227
10
-107.67559051513672
20
-170.20421981811523
10
-107.72793769836426
20
-170.29489517211914
10
-107.78648376464844
20
-170.38171768188477
10
-107.85094261169434
20
-170.46419143676758
10
-107.92099952697754
20
-170.54201126098633
10
-107.99631118774414
20
-170.61471939086914
10
-108.07651519775391
20
-170.68201065063477
10
-108.16122055053711
20
-170.74357986450195
10
-108.25000762939453
20
-170.79904556274414
10
-108.34244728088379
20
-170.84821701049805
10
-108.43810081481934
20
-170.89078903198242
10
-108.5364818572998
20
-170.92660903930664
10
-108.63712310791016
20
-170.95544815063477
10
-108.73953819274902
20
-170.97723007202148
10
-108.84321212768555
20
-170.99180221557617
10
-108.94765853881836
20
-170.99908828735352
10
-109.05235290527344
20
-170.99908828735352
10
-109.15679931640625
20
-170.99180221557617
10
-109.26048278808594
20
-170.97723007202148
10
-109.36288833618164
20
-170.95544815063477
10
-109.46352958679199
20
-170.92660903930664
10
-109.56192016601562
20
-170.89078903198242
10
-109.65756416320801
20
-170.84821701049805
10
-109.75000381469727
20
-170.79904556274414
10
-109.83880043029785
20
-170.74357986450195
10
-109.92349624633789
20
-170.68201065063477
10
-110.00370025634766
20
-170.61471939086914
10
-110.07902145385742
20
-170.54201126098633
10
-110.14907836914062
20
-170.46419143676758
10
-110.21353721618652
20
-170.38171768188477
10
-110.2720832824707
20
-170.29489517211914
10
-110.32443046569824
20
-170.20421981811523
10
-110.37033081054688
20
-170.11011123657227
10
-110.4095458984375
20
-170.01306533813477
10
-110.44190406799316
20
-169.9134635925293
10
-110.46723365783691
20
-169.8118782043457
10
-110.48541069030762
20
-169.70880508422852
10
-110.4963493347168
20
-169.60466384887695
10
-110.5000114440918
20
-169.50002670288086
10
-110.4963493347168
20
-169.39538955688477
10
-110.48541069030762
20
-169.2912483215332
10
-110.46723365783691
20
-169.18817520141602
10
-110.44190406799316
20
-169.08655166625977
10
-110.4095458984375
20
-168.98698806762695
10
-110.37033081054688
20
-168.8899040222168
10
-110.32443046569824
20
-168.79583358764648
10
-110.2720832824707
20
-168.70512008666992
10
-110.21353721618652
20
-168.61833572387695
10
-110.14907836914062
20
-168.53586196899414
10
-110.07902145385742
20
-168.45804214477539
10
-110.00370025634766
20
-168.38529586791992
10
-109.92349624633789
20
-168.3180046081543
10
-109.83880043029785
20
-168.25647354125977
10
-109.75000381469727
20
-168.20096969604492
10
-109.65756416320801
20
-168.15179824829102
10
-109.56192016601562
20
-168.10922622680664
10
-109.46352958679199
20
-168.07344436645508
10
-109.36288833618164
20
-168.0445671081543
10
-109.26048278808594
20
-168.02282333374023
10
-109.15679931640625
20
-168.00821304321289
10
-109.05235290527344
20
-168.00092697143555
10
-108.94765853881836
20
-168.00092697143555
10
-108.84321212768555
20
-168.00821304321289
10
-108.73953819274902
20
-168.02282333374023
10
-108.63712310791016
20
-168.0445671081543
10
-108.5364818572998
20
-168.07344436645508
10
-108.43810081481934
20
-168.10922622680664
10
-108.34244728088379
20
-168.15179824829102
10
-108.25000762939453
20
-168.20096969604492
10
-108.16122055053711
20
-168.25647354125977
10
-108.07651519775391
20
-168.3180046081543
10
-107.99631118774414
20
-168.38529586791992
0
LWPOLYLINE
5
102
100
AcDbEntity
8
0
100
AcDbPolyline
90
13
70
1
43
0.0
10
-106.00000381469727
20
-167.34308242797852
10
-105.71349143981934
20
-167.6197624206543
10
-104.69758033752441
20
-168.47223281860352
10
-103.62466812133789
20
-169.25172805786133
10
-102.50000953674316
20
-169.95447158813477
10
-101.32905960083008
20
-170.57710647583008
10
-100.11753082275391
20
-171.11650466918945
10
-98.871326446533203
20
-171.57007217407227
10
-98.403873443603516
20
-171.70412063598633
10
-94.000005722045898
20
-169.16154861450195
10
-94.000005722045898
20
-162.23337173461914
10
-100.00000953674316
20
-158.76924514770508
10
-106.00000381469727
20
-162.23337173461914
0
LWPOLYLINE
5
103
100
AcDbEntity
8
0
100
AcDbPolyline
90
7
70
1
43
0.0
10
-108.37133407592773
20
-164.66791152954102
10
-108.0000114440918
20
-165.14322280883789
10
-108.0000114440918
20
-162.23337173461914
10
-110.54479598999023
20
-160.76410293579102
10
-110.35737037658691
20
-161.22800827026367
10
-109.77601051330566
20
-162.41998672485352
10
-109.1129207611084
20
-163.56851577758789
0
LWPOLYLINE
5
104
100
AcDbEntity
8
0
100
AcDbPolyline
90
13
70
1
43
0.0
10
-107.00000762939453
20
-160.50130844116211
10
-101.00000381469727
20
-157.0372200012207
10
-101.00000381469727
20
-150.10900497436523
10
-107.00000762939453
20
-146.64491653442383
10
-111.50974273681641
20
-149.24860000610352
10
-111.58481597900391
20
-149.5496940612793
10
-111.81509971618652
20
-150.85573196411133
10
-111.95372581481934
20
-152.17462539672852
10
-112.00000762939453
20
-153.50000381469727
10
-111.95372581481934
20
-154.82538223266602
10
-111.81509971618652
20
-156.14431381225586
10
-111.58481597900391
20
-157.45035171508789
10
-111.46717071533203
20
-157.92219161987305
0
LWPOLYLINE
5
105
100
AcDbEntity
8
0
100
AcDbPolyline
90
6
70
1
43
0.0
10
-99.000005722045898
20
-150.10900497436523
10
-99.000005722045898
20
-157.0372200012207
10
-93.000011444091797
20
-160.50130844116211
10
-87.000007629394531
20
-157.0372200012207
10
-87.000007629394531
20
-150.10900497436523
10
-93.000011444091797
20
-146.64491653442383
0
LWPOLYLINE
5
106
100
AcDbEntity
8
0
100
AcDbPolyline
90
13
70
1
43
0.0
10
-106.00000381469727
20
-144.9128532409668
10
-100.00000953674316
20
-148.3769416809082
10
-94.000005722045898
20
-144.9128532409668
10
-94.000005722045898
20
-137.98463821411133
10
-98.573036193847656
20
-135.34440994262695
10
-98.871326446533203
20
-135.42995452880859
10
-100.11753082275391
20
-135.88352203369141
10
-101.32905960083008
20
-136.42292022705078
10
-102.50000953674316
20
-137.04555511474609
10
-103.62466812133789
20
-137.74829864501953
10
-104.69758033752441
20
-138.52781295776367
10
-105.71349143981934
20
-139.38026428222656
10
-106.00000381469727
20
-139.65694427490234
0
LWPOLYLINE
5
107
100
AcDbEntity
8
0
100
AcDbPolyline
90
7
70
1
43
0.0
10
-95.481500625610352
20
-172.32629776000977
10
-93.000011444091797
20
-170.89361190795898
10
-90.518512725830078
20
-172.32629776000977
10
-91.013965606689453
20
-172.39591598510742
10
-92.336921691894531
20
-172.48846054077148
10
-93.663101196289062
20
-172.48846054077148
10
-94.986047744750977
20
-172.39591598510742
0
LWPOLYLINE
5
108
100
AcDbEntity
8
0
100
AcDbPolyline
90
13
70
1
43
0.0
10
-92.000007629394531
20
-162.23337173461914
10
-92.000007629394531
20
-169.16154861450195
10
-87.596139907836914
20
-171.70412063598633
10
-87.128686904907227
20
-171.57007217407227
10
-85.882482528686523
20
-171.11650466918945
10
-84.670953750610352
20
-170.57710647583008
10
-83.500003814697266
20
-169.95447158813477
10
-82.375335693359375
20
-169.25172805786133
10
-81.302433013916016
20
-168.47223281860352
10
-80.286521911621094
20
-167.6197624206543
10
-80
20
-167.34308242797852
10
-80
20
-162.23337173461914
10
-86.000003814697266
20
-158.76924514770508
0
LWPOLYLINE
5
109
100
AcDbEntity
8
0
100
AcDbPolyline
90
7
70
1
43
0.0
10
-110.6218147277832
20
-146.42656326293945
10
-108.0000114440918
20
-144.9128532409668
10
-108.0000114440918
20
-141.8568229675293
10
-108.37133407592773
20
-142.33209609985352
10
-109.1129207611084
20
-143.43156814575195
10
-109.77601051330566
20
-144.58005905151367
10
-110.35737037658691
20
-145.77203750610352
0
LWPOLYLINE
5
110
100
AcDbEntity
8
0
100
AcDbPolyline
90
90
70
1
43
0.0
10
-107.51461029052734
20
-137.70877838134766
10
-107.503662109375
20
-137.60465621948242
10
-107.50000953674316
20
-137.50001907348633
10
-107.503662109375
20
-137.39536285400391
10
-107.51461029052734
20
-137.29124069213867
10
-107.53278732299805
20
-137.18814849853516
10
-107.5581169128418
20
-137.08656311035156
10
-107.5904655456543
20
-136.98698043823242
10
-107.62969017028809
20
-136.88991546630859
10
-107.67559051513672
20
-136.79582595825195
10
-107.72793769836426
20
-136.70513153076172
10
-107.78648376464844
20
-136.61832809448242
10
-107.85094261169434
20
-136.53583526611328
10
-107.92099952697754
20
-136.45801544189453
10
-107.99631118774414
20
-136.38530731201172
10
-108.07651519775391
20
-136.31801605224609
10
-108.16122055053711
20
-136.25644683837891
10
-108.25000762939453
20
-136.20098114013672
10
-108.34244728088379
20
-136.15180969238281
10
-108.43810081481934
20
-136.10923767089844
10
-108.5364818572998
20
-136.07343673706055
10
-108.63712310791016
20
-136.04457855224609
10
-108.73953819274902
20
-136.0228157043457
10
-108.84321212768555
20
-136.00822448730469
10
-108.94765853881836
20
-136.00093841552734
10
-109.05235290527344
20
-136.00093841552734
10
-109.15679931640625
20
-136.00822448730469
10
-109.26048278808594
20
-136.0228157043457
10
-109.36288833618164
20
-136.04457855224609
10
-109.46352958679199
20
-136.07343673706055
10
-109.56192016601562
20
-136.10923767089844
10
-109.65756416320801
20
-136.15180969238281
10
-109.75000381469727
20
-136.20098114013672
10
-109.83880043029785
20
-136.25644683837891
10
-109.92349624633789
20
-136.31801605224609
10
-110.00370025634766
20
-136.38530731201172
10
-110.07902145385742
20
-136.45801544189453
10
-110.14907836914062
20
-136.53583526611328
10
-110.21353721618652
20
-136.61832809448242
10
-110.2720832824707
20
-136.70513153076172
10
-110.32443046569824
20
-136.79582595825195
10
-110.37033081054688
20
-136.88991546630859
10
-110.4095458984375
20
-136.98698043823242
10
-110.44190406799316
20
-137.08656311035156
10
-110.46723365783691
20
-137.18814849853516
10
-110.48541069030762
20
-137.29124069213867
10
-110.4963493347168
20
-137.39536285400391
10
-110.5000114440918
20
-137.50001907348633
10
-110.4963493347168
20
-137.60465621948242
10
-110.48541069030762
20
-137.70877838134766
10
-110.46723365783691
20
-137.81187057495117
10
-110.44190406799316
20
-137.91347503662109
10
-110.4095458984375
20
-138.01303863525391
10
-110.37033081054688
20
-138.11012268066406
10
-110.32443046569824
20
-138.2042121887207
10
-110.2720832824707
20
-138.29490661621094
10
-110.21353721618652
20
-138.38169097900391
10
-110.14907836914062
20
-138.46418380737305
10
-110.07902145385742
20
-138.5420036315918
10
-110.00370025634766
20
-138.61473083496094
10
-109.92349624633789
20
-138.68202209472656
10
-109.83880043029785
20
-138.74357223510742
10
-109.75000381469727
20
-138.79905700683594
10
-109.65756416320801
20
-138.84822845458984
10
-109.56192016601562
20
-138.89080047607422
10
-109.46352958679199
20
-138.92658233642578
10
-109.36288833618164
20
-138.95545959472656
10
-109.26048278808594
20
-138.97722244262695
10
-109.15679931640625
20
-138.99181365966797
10
-109.05235290527344
20
-138.99909973144531
10
-108.94765853881836
20
-138.99909973144531
10
-108.84321212768555
20
-138.99181365966797
10
-108.73953819274902
20
-138.97722244262695
10
-108.63712310791016
20
-138.95545959472656
10
-108.5364818572998
20
-138.92658233642578
10
-108.43810081481934
20
-138.89080047607422
10
-108.34244728088379
20
-138.84822845458984
10
-108.25000762939453
20
-138.79905700683594
10
-108.16122055053711
20
-138.74357223510742
10
-108.07651519775391
20
-138.68202209472656
10
-107.99631118774414
20
-138.61473083496094
10
-107.92099952697754
20
-138.5420036315918
10
-107.85094261169434
20
-138.46418380737305
10
-107.78648376464844
20
-138.38169097900391
10
-107.72793769836426
20
-138.29490661621094
10
-107.67559051513672
20
-138.2042121887207
10
-107.62969017028809
20
-138.11012268066406
10
-107.5904655456543
20
-138.01303863525391
10
-107.5581169128418
20
-137.91347503662109
10
-107.53278732299805
20
-137.81187057495117
0
LWPOLYLINE
5
111
100
AcDbEntity
8
0
100
AcDbPolyline
90
13
70
1
43
0.0
10
-92.000007629394531
20
-137.98463821411133
10
-92.000007629394531
20
-144.9128532409668
10
-86.000003814697266
20
-148.3769416809082
10
-80
20
-144.9128532409668
10
-80
20
-139.65696334838867
10
-80.286521911621094
20
-139.38026428222656
10
-81.302433013916016
20
-138.52781295776367
10
-82.375335693359375
20
-137.74829864501953
10
-83.500003814697266
20
-137.04555511474609
10
-84.670953750610352
20
-136.42292022705078
10
-85.882482528686523
20
-135.88352203369141
10
-87.128686904907227
20
-135.42995452880859
10
-87.426986694335938
20
-135.34440994262695
0
LWPOLYLINE
5
112
100
AcDbEntity
8
0
100
AcDbPolyline
90
13
70
1
43
0.0
10
-85.000009536743164
20
-150.10900497436523
10
-85.000009536743164
20
-157.0372200012207
10
-79.000005722045898
20
-160.50130844116211
10
-74.53284740447998
20
-157.92219161987305
10
-74.415202140808105
20
-157.45035171508789
10
-74.184913635253906
20
-156.14431381225586
10
-74.046292304992676
20
-154.82538223266602
10
-74.000005722045898
20
-153.50000381469727
10
-74.046292304992676
20
-152.17462539672852
10
-74.184913635253906
20
-150.85573196411133
10
-74.415202140808105
20
-149.5496940612793
10
-74.490275382995605
20
-149.24860000610352
10
-79.000005722045898
20
-146.64491653442383
0
LWPOLYLINE
5
113
100
AcDbEntity
8
0
100
AcDbPolyline
90
7
70
1
43
0.0
10
-95.685110092163086
20
-134.70233917236328
10
-93.000011444091797
20
-136.2525749206543
10
-90.314903259277344
20
-134.70233917236328
10
-91.013965606689453
20
-134.60411071777344
10
-92.336921691894531
20
-134.5115852355957
10
-93.663101196289062
20
-134.5115852355957
10
-94.986047744750977
20
-134.60411071777344
0
LWPOLYLINE
5
114
100
AcDbEntity
8
0
100
AcDbPolyline
90
50
70
1
43
0.0
10
-127.48001098632812
20
-144.48999404907227
10
-125.5000114440918
20
-144.48999404907227
10
-125.5000114440918
20
-175.82746505737305
10
-125.5677318572998
20
-175.9663200378418
10
-125.69847106933594
20
-176.28992080688477
10
-125.80631256103516
20
-176.6218376159668
10
-125.8907413482666
20
-176.96046829223633
10
-125.95134735107422
20
-177.30417251586914
10
-125.98782539367676
20
-177.6512336730957
10
-126.00000381469727
20
-178.0000114440918
10
-125.98782539367676
20
-178.34878921508789
10
-125.95134735107422
20
-178.69588851928711
10
-125.8907413482666
20
-179.03955459594727
10
-125.80631256103516
20
-179.3781852722168
10
-125.69847106933594
20
-179.71014022827148
10
-125.5677318572998
20
-180.0337028503418
10
-125.50001017360928
20
-180.17255720889736
10
-125.5000114440918
20
-183.50000381469727
10
-23.900003433227539
20
-183.50000381469727
10
-23.900003433227539
20
-144.48999404907227
10
-21.89000129699707
20
-144.48999404907227
10
-21.89000129699707
20
-134.49001312255859
10
-23.900003433227539
20
-134.49001312255859
10
-23.900003433227539
20
-30.510005950927734
10
-21.89000129699707
20
-30.510005950927734
10
-21.89000129699707
20
-20.510005950927734
10
-23.900003433227539
20
-20.510005950927734
10
-23.900003433227539
20
-9.5000076293945312
10
-125.5000114440918
20
-9.5000076293945312
10
-125.5000114440918
20
-20.510005950927734
10
-127.48001098632812
20
-20.510005950927734
10
-127.48001098632812
20
-30.510005950927734
10
-125.5000114440918
20
-30.510005950927734
10
-125.5000114440918
20
-126.82746887207031
10
-125.5677318572998
20
-126.96632385253906
10
-125.69847106933594
20
-127.2899055480957
10
-125.80631256103516
20
-127.62184143066406
10
-125.8907413482666
20
-127.96047210693359
10
-125.95134735107422
20
-128.30415725708008
10
-125.98782539367676
20
-128.65123748779297
10
-126.00000381469727
20
-129.00001525878906
10
-125.98782539367676
20
-129.34879302978516
10
-125.95134735107422
20
-129.69587326049805
10
-125.8907413482666
20
-130.03955841064453
10
-125.80631256103516
20
-130.37818908691406
10
-125.69847106933594
20
-130.71012496948242
10
-125.5677318572998
20
-131.03370666503906
10
-125.5000114440918
20
-131.17256164550781
10
-125.5000114440918
20
-134.49001312255859
10
-127.48001098632812
20
-134.49001312255859
0
LWPOLYLINE
5
115
100
AcDbEntity
8
0
100
AcDbPolyline
90
7
70
1
43
0.0
10
-78.000006675720215
20
-162.23337173461914
10
-78.000006675720215
20
-165.14322280883789
10
-77.628684043884277
20
-164.66791152954102
10
-76.887092590332031
20
-163.56851577758789
10
-76.224002838134766
20
-162.41998672485352
10
-75.642647743225098
20
-161.22800827026367
10
-75.455217361450195
20
-160.76410293579102
0
LWPOLYLINE
5
116
100
AcDbEntity
8
0
100
AcDbPolyline
90
90
70
1
43
0.0
10
-78.500008583068848
20
-169.50002670288086
10
-78.49635124206543
20
-169.39538955688477
10
-78.485407829284668
20
-169.2912483215332
10
-78.467230796813965
20
-169.18817520141602
10
-78.441901206970215
20
-169.08655166625977
10
-78.409543037414551
20
-168.98698806762695
10
-78.370327949523926
20
-168.8899040222168
10
-78.324427604675293
20
-168.79583358764648
10
-78.272080421447754
20
-168.70512008666992
10
-78.213529586791992
20
-168.61833572387695
10
-78.149075508117676
20
-168.53586196899414
10
-78.079018592834473
20
-168.45804214477539
10
-78.003702163696289
20
-168.38529586791992
10
-77.923498153686523
20
-168.3180046081543
10
-77.838797569274902
20
-168.25647354125977
10
-77.750005722045898
20
-168.20096969604492
10
-77.657566070556641
20
-168.15179824829102
10
-77.561917304992676
20
-168.10922622680664
10
-77.463531494140625
20
-168.07344436645508
10
-77.362890243530273
20
-168.0445671081543
10
-77.260479927062988
20
-168.02282333374023
10
-77.156796455383301
20
-168.00821304321289
10
-77.05235481262207
20
-168.00092697143555
10
-76.94765567779541
20
-168.00092697143555
10
-76.84321403503418
20
-168.00821304321289
10
-76.739535331726074
20
-168.02282333374023
10
-76.637120246887207
20
-168.0445671081543
10
-76.536483764648438
20
-168.07344436645508
10
-76.438097953796387
20
-168.10922622680664
10
-76.342453956604004
20
-168.15179824829102
10
-76.250004768371582
20
-168.20096969604492
10
-76.16121768951416
20
-168.25647354125977
10
-76.076512336730957
20
-168.3180046081543
10
-75.996308326721191
20
-168.38529586791992
10
-75.92099666595459
20
-168.45804214477539
10
-75.850939750671387
20
-168.53586196899414
10
-75.786480903625488
20
-168.61833572387695
10
-75.727934837341309
20
-168.70512008666992
10
-75.67558765411377
20
-168.79583358764648
10
-75.629692077636719
20
-168.8899040222168
10
-75.59046745300293
20
-168.98698806762695
10
-75.558114051818848
20
-169.08655166625977
10
-75.532784461975098
20
-169.18817520141602
10
-75.514607429504395
20
-169.2912483215332
10
-75.503659248352051
20
-169.39538955688477
10
-75.500006675720215
20
-169.50002670288086
10
-75.503659248352051
20
-169.60466384887695
10
-75.514607429504395
20
-169.70880508422852
10
-75.532784461975098
20
-169.8118782043457
10
-75.558114051818848
20
-169.9134635925293
10
-75.59046745300293
20
-170.01306533813477
10
-75.629692077636719
20
-170.11011123657227
10
-75.67558765411377
20
-170.20421981811523
10
-75.727934837341309
20
-170.29489517211914
10
-75.786480903625488
20
-170.38171768188477
10
-75.850939750671387
20
-170.46419143676758
10
-75.92099666595459
20
-170.54201126098633
10
-75.996308326721191
20
-170.61471939086914
10
-76.076512336730957
20
-170.68201065063477
10
-76.16121768951416
20
-170.74357986450195
10
-76.250004768371582
20
-170.79904556274414
10
-76.342453956604004
20
-170.84821701049805
10
-76.438097953796387
20
-170.89078903198242
10
-76.536483764648438
20
-170.92660903930664
10
-76.637120246887207
20
-170.95544815063477
10
-76.739535331726074
20
-170.97723007202148
10
-76.84321403503418
20
-170.99180221557617
10
-76.94765567779541
20
-170.99908828735352
10
-77.05235481262207
20
-170.99908828735352
10
-77.156796455383301
20
-170.99180221557617
10
-77.260479927062988
20
-170.97723007202148
10
-77.362890243530273
20
-170.95544815063477
10
-77.463531494140625
20
-170.92660903930664
10
-77.561917304992676
20
-170.89078903198242
10
-77.657566070556641
20
-170.84821701049805
10
-77.750005722045898
20
-170.79904556274414
10
-77.838797569274902
20
-170.74357986450195
10
-77.923498153686523
20
-170.68201065063477
10
-78.003702163696289
20
-170.61471939086914
10
-78.079018592834473
20
-170.54201126098633
10
-78.149075508117676
20
-170.46419143676758
10
-78.213529586791992
20
-170.38171768188477
10
-78.272080421447754
20
-170.29489517211914
10
-78.324427604675293
20
-170.20421981811523
10
-78.370327949523926
20
-170.11011123657227
10
-78.409543037414551
20
-170.01306533813477
10
-78.441901206970215
20
-169.9134635925293
10
-78.467230796813965
20
-169.8118782043457
10
-78.485407829284668
20
-169.70880508422852
10
-78.49635124206543
20
-169.60466384887695
0
LWPOLYLINE
5
117
100
AcDbEntity
8
0
100
AcDbPolyline
90
7
70
1
43
0.0
10
-78.000006675720215
20
-144.9128532409668
10
-75.378193855285645
20
-146.42656326293945
10
-75.642647743225098
20
-145.77203750610352
10
-76.224002838134766
20
-144.58005905151367
10
-76.887092590332031
20
-143.43156814575195
10
-77.628684043884277
20
-142.33209609985352
10
-78.000006675720215
20
-141.8568229675293
0
LWPOLYLINE
5
118
100
AcDbEntity
8
0
100
AcDbPolyline
90
90
70
1
43
0.0
10
-78.324427604675293
20
-138.2042121887207
10
-78.272080421447754
20
-138.29490661621094
10
-78.213529586791992
20
-138.38169097900391
10
-78.149075508117676
20
-138.46418380737305
10
-78.079018592834473
20
-138.5420036315918
10
-78.003702163696289
20
-138.61473083496094
10
-77.923498153686523
20
-138.68202209472656
10
-77.838797569274902
20
-138.74357223510742
10
-77.750005722045898
20
-138.79905700683594
10
-77.657566070556641
20
-138.84822845458984
10
-77.561917304992676
20
-138.89080047607422
10
-77.463531494140625
20
-138.92658233642578
10
-77.362890243530273
20
-138.95545959472656
10
-77.260479927062988
20
-138.97722244262695
10
-77.156796455383301
20
-138.99181365966797
10
-77.05235481262207
20
-138.99909973144531
10
-76.94765567779541
20
-138.99909973144531
10
-76.84321403503418
20
-138.99181365966797
10
-76.739535331726074
20
-138.97722244262695
10
-76.637120246887207
20
-138.95545959472656
10
-76.536483764648438
20
-138.92658233642578
10
-76.438097953796387
20
-138.89080047607422
10
-76.342453956604004
20
-138.84822845458984
10
-76.250004768371582
20
-138.79905700683594
10
-76.16121768951416
20
-138.74357223510742
10
-76.076512336730957
20
-138.68202209472656
10
-75.996308326721191
20
-138.61473083496094
10
-75.92099666595459
20
-138.5420036315918
10
-75.850939750671387
20
-138.46418380737305
10
-75.786480903625488
20
-138.38169097900391
10
-75.727934837341309
20
-138.29490661621094
10
-75.67558765411377
20
-138.2042121887207
10
-75.629692077636719
20
-138.11012268066406
10
-75.59046745300293
20
-138.01303863525391
10
-75.558114051818848
20
-137.91347503662109
10
-75.532784461975098
20
-137.81187057495117
10
-75.514607429504395
20
-137.70877838134766
10
-75.503659248352051
20
-137.60465621948242
10
-75.500006675720215
20
-137.50001907348633
10
-75.503659248352051
20
-137.39536285400391
10
-75.514607429504395
20
-137.29124069213867
10
-75.532784461975098
20
-137.18814849853516
10
-75.558114051818848
20
-137.08656311035156
10
-75.59046745300293
20
-136.98698043823242
10
-75.629692077636719
20
-136.88991546630859
10
-75.67558765411377
20
-136.79582595825195
10
-75.727934837341309
20
-136.70513153076172
10
-75.786480903625488
20
-136.61832809448242
10
-75.850939750671387
20
-136.53583526611328
10
-75.92099666595459
20
-136.45801544189453
10
-75.996308326721191
20
-136.38530731201172
10
-76.076512336730957
20
-136.31801605224609
10
-76.16121768951416
20
-136.25644683837891
10
-76.250004768371582
20
-136.20098114013672
10
-76.342453956604004
20
-136.15180969238281
10
-76.438097953796387
20
-136.10923767089844
10
-76.536483764648438
20
-136.07343673706055
10
-76.637120246887207
20
-136.04457855224609
10
-76.739535331726074
20
-136.0228157043457
10
-76.84321403503418
20
-136.00822448730469
10
-76.94765567779541
20
-136.00093841552734
10
-77.05235481262207
20
-136.00093841552734
10
-77.156796455383301
20
-136.00822448730469
10
-77.260479927062988
20
-136.0228157043457
10
-77.362890243530273
20
-136.04457855224609
10
-77.463531494140625
20
-136.07343673706055
10
-77.561917304992676
20
-136.10923767089844
10
-77.657566070556641
20
-136.15180969238281
10
-77.750005722045898
20
-136.20098114013672
10
-77.838797569274902
20
-136.25644683837891
10
-77.923498153686523
20
-136.31801605224609
10
-78.003702163696289
20
-136.38530731201172
10
-78.079018592834473
20
-136.45801544189453
10
-78.149075508117676
20
-136.53583526611328
10
-78.213529586791992
20
-136.61832809448242
10
-78.272080421447754
20
-136.70513153076172
10
-78.324427604675293
20
-136.79582595825195
10
-78.370327949523926
20
-136.88991546630859
10
-78.409543037414551
20
-136.98698043823242
10
-78.441901206970215
20
-137.08656311035156
10
-78.467230796813965
20
-137.18814849853516
10
-78.485407829284668
20
-137.29124069213867
10
-78.49635124206543
20
-137.39536285400391
10
-78.500008583068848
20
-137.50001907348633
10
-78.49635124206543
20
-137.60465621948242
10
-78.485407829284668
20
-137.70877838134766
10
-78.467230796813965
20
-137.81187057495117
10
-78.441901206970215
20
-137.91347503662109
10
-78.409543037414551
20
-138.01303863525391
10
-78.370327949523926
20
-138.11012268066406
0
LWPOLYLINE
5
119
100
AcDbEntity
8
0
100
AcDbPolyline
90
20
70
1
43
0.0
10
5.0899887084960938
20
-25.800018310546875
10
5.0899887084960938
20
-35.800018310546875
10
7.1000003814697266
20
-35.800018310546875
10
7.1000003814697266
20
-151.10002517700195
10
5.0899887084960938
20
-151.10002517700195
10
5.0899887084960938
20
-161.10002517700195
10
7.1000003814697266
20
-161.10002517700195
10
7.1000003814697266
20
-179.10001754760742
10
108.69998931884766
20
-179.10001754760742
10
108.69998931884766
20
-161.10002517700195
10
110.71001052856445
20
-161.10002517700195
10
110.71001052856445
20
-151.10002517700195
10
108.69998931884766
20
-151.10002517700195
10
108.69998931884766
20
-35.800018310546875
10
110.71001052856445
20
-35.800018310546875
10
110.71001052856445
20
-25.800018310546875
10
108.69998931884766
20
-25.800018310546875
10
108.69998931884766
20
-9.8000144958496094
10
7.1000003814697266
20
-9.8000144958496094
10
7.1000003814697266
20
-25.800018310546875
0
LWPOLYLINE
5
120
100
AcDbEntity
8
0
100
AcDbPolyline
90
90
70
1
43
0.0
10
58.859348297119141
20
24.420194625854492
10
58.951148986816406
20
24.608402252197266
10
59.055862426757812
20
24.789752960205078
10
59.172935485839844
20
24.963350296020508
10
59.301853179931641
20
25.128345489501953
10
59.441986083984375
20
25.283966064453125
10
59.592609405517578
20
25.429410934448242
10
59.753017425537109
20
25.56401252746582
10
59.922428131103516
20
25.687103271484375
10
60.100002288818359
20
25.798063278198242
10
60.284881591796875
20
25.896368026733398
10
60.476169586181641
20
25.981540679931641
10
60.672931671142578
20
26.05316162109375
10
60.874233245849609
20
26.110868453979492
10
61.079044342041016
20
26.154403686523438
10
61.286411285400391
20
26.183547973632812
10
61.495304107666016
20
26.198148727416992
10
61.704692840576172
20
26.198148727416992
10
61.913585662841797
20
26.183547973632812
10
62.120933532714844
20
26.154403686523438
10
62.325763702392578
20
26.110868453979492
10
62.527046203613281
20
26.05316162109375
10
62.723808288574219
20
25.981540679931641
10
62.915115356445312
20
25.896368026733398
10
63.099994659423828
20
25.798063278198242
10
63.277568817138672
20
25.687103271484375
10
63.446979522705078
20
25.56401252746582
10
63.607387542724609
20
25.429410934448242
10
63.758029937744141
20
25.283966064453125
10
63.898124694824219
20
25.128345489501953
10
64.027042388916016
20
24.963350296020508
10
64.144153594970703
20
24.789752960205078
10
64.248828887939453
20
24.608402252197266
10
64.340629577636719
20
24.420194625854492
10
64.419078826904297
20
24.226045608520508
10
64.483776092529297
20
24.026899337768555
10
64.534435272216797
20
23.823719024658203
10
64.570789337158203
20
23.61750602722168
10
64.592685699462891
20
23.409261703491211
10
64.600009918212891
20
23.199987411499023
10
64.592685699462891
20
22.99072265625
10
64.570789337158203
20
22.782468795776367
10
64.534435272216797
20
22.57624626159668
10
64.483776092529297
20
22.373075485229492
10
64.419078826904297
20
22.173919677734375
10
64.340629577636719
20
21.979780197143555
10
64.248828887939453
20
21.791563034057617
10
64.144153594970703
20
21.610231399536133
10
64.027042388916016
20
21.436634063720703
10
63.898124694824219
20
21.27161979675293
10
63.758029937744141
20
21.116018295288086
10
63.607387542724609
20
20.970554351806641
10
63.446979522705078
20
20.835952758789062
10
63.277568817138672
20
20.712881088256836
10
63.099994659423828
20
20.601911544799805
10
62.915115356445312
20
20.503606796264648
10
62.723808288574219
20
20.418424606323242
10
62.527046203613281
20
20.346822738647461
10
62.325763702392578
20
20.289096832275391
10
62.120933532714844
20
20.245561599731445
10
61.913585662841797
20
20.21641731262207
10
61.704692840576172
20
20.201816558837891
10
61.495304107666016
20
20.201816558837891
10
61.286411285400391
20
20.21641731262207
10
61.079044342041016
20
20.245561599731445
10
60.874233245849609
20
20.289096832275391
10
60.672931671142578
20
20.346822738647461
10
60.476169586181641
20
20.418424606323242
10
60.284881591796875
20
20.503606796264648
10
60.100002288818359
20
20.601911544799805
10
59.922428131103516
20
20.712881088256836
10
59.753017425537109
20
20.835952758789062
10
59.592609405517578
20
20.970554351806641
10
59.441986083984375
20
21.116018295288086
10
59.301853179931641
20
21.27161979675293
10
59.172935485839844
20
21.436634063720703
10
59.055862426757812
20
21.610231399536133
10
58.951148986816406
20
21.791563034057617
10
58.859348297119141
20
21.979780197143555
10
58.780918121337891
20
22.173919677734375
10
58.716220855712891
20
22.373075485229492
10
58.665561676025391
20
22.57624626159668
10
58.629188537597656
20
22.782468795776367
10
58.607292175292969
20
22.99072265625
10
58.600006103515625
20
23.199987411499023
10
58.607292175292969
20
23.409261703491211
10
58.629188537597656
20
23.61750602722168
10
58.665561676025391
20
23.823719024658203
10
58.716220855712891
20
24.026899337768555
10
58.780918121337891
20
24.226045608520508
0
LWPOLYLINE
5
121
100
AcDbEntity
8
0
100
AcDbPolyline
90
24
70
1
43
0.0
10
47.350006103515625
20
23.228015899658203
10
47.350006103515625
20
18.449974060058594
10
32.349996566772461
20
18.449974060058594
10
32.349996566772461
20
23.228015899658203
10
32.443199157714844
20
23.208208084106445
10
32.756786346435547
20
23.208208084106445
10
33.063516616821289
20
23.273410797119141
10
33.350000381469727
20
23.400945663452148
10
33.603696823120117
20
23.585271835327148
10
33.813514709472656
20
23.81831169128418
10
33.970317840576172
20
24.089879989624023
10
34.006080627441406
20
24.199981689453125
10
34.099998474121094
20
24.199981689453125
10
34.099998474121094
20
24.699983596801758
10
45.599994659423828
20
24.699983596801758
10
45.599994659423828
20
24.199981689453125
10
45.693912506103516
20
24.199981689453125
10
45.72967529296875
20
24.089879989624023
10
45.886478424072266
20
23.81831169128418
10
46.096286773681641
20
23.585271835327148
10
46.350002288818359
20
23.400945663452148
10
46.636466979980469
20
23.273410797119141
10
46.943206787109375
20
23.208208084106445
10
47.256793975830078
20
23.208208084106445
0
LWPOLYLINE
5
122
100
AcDbEntity
8
0
100
AcDbPolyline
90
20
70
1
43
0.0
10
7.1000003814697266
20
6.1999893188476562
10
108.69998931884766
20
6.1999893188476562
10
108.69998931884766
20
24.199981689453125
10
110.71001052856445
20
24.199981689453125
10
110.71001052856445
20
34.199981689453125
10
108.69998931884766
20
34.199981689453125
10
108.69998931884766
20
149.4999885559082
10
110.71001052856445
20
149.4999885559082
10
110.71001052856445
20
159.4999885559082
10
108.69998931884766
20
159.4999885559082
10
108.69998931884766
20
179.4999885559082
10
7.1000003814697266
20
179.4999885559082
10
7.1000003814697266
20
159.4999885559082
10
5.0899887084960938
20
159.4999885559082
10
5.0899887084960938
20
149.4999885559082
10
7.1000003814697266
20
149.4999885559082
10
7.1000003814697266
20
34.199981689453125
10
5.0899887084960938
20
34.199981689453125
10
5.0899887084960938
20
24.199981689453125
10
7.1000003814697266
20
24.199981689453125
0
LWPOLYLINE
5
123
100
AcDbEntity
8
0
100
AcDbPolyline
90
9
70
1
43
0.0
10
51.649990081787109
20
101.01907730102539
10
53.823394775390625
20
100.7136344909668
10
56.538925170898438
20
100.52373886108398
10
59.261074066162109
20
100.52373886108398
10
61.976604461669922
20
100.7136344909668
10
63.649997711181641
20
100.94881057739258
10
63.649997711181641
20
106.78975105285645
10
57.649993896484375
20
110.25384902954102
10
51.649990081787109
20
106.78975105285645
0
LWPOLYLINE
5
124
100
AcDbEntity
8
0
100
AcDbPolyline
90
10
70
1
43
0.0
10
48.465042114257812
20
101.6584587097168
10
49.649982452392578
20
101.40659332275391
10
49.649982452392578
20
106.78975105285645
10
43.649997711181641
20
110.25384902954102
10
37.649993896484375
20
106.78975105285645
10
37.649993896484375
20
106.19365692138672
10
38.399982452392578
20
105.7249927520752
10
40.80352783203125
20
104.447021484375
10
43.290348052978516
20
103.33981513977051
10
45.848331451416016
20
102.40879058837891
0
LWPOLYLINE
5
125
100
AcDbEntity
8
0
100
AcDbPolyline
90
90
70
1
43
0.0
10
21.220989227294922
20
21.460256576538086
10
21.350584030151367
20
21.478471755981445
10
21.478605270385742
20
21.505680084228516
10
21.604394912719727
20
21.541748046875
10
21.727380752563477
20
21.586523056030273
10
21.846933364868164
20
21.639738082885742
10
21.962490081787109
20
21.701192855834961
10
22.073478698730469
20
21.770544052124023
10
22.179365158081055
20
21.847457885742188
10
22.27961540222168
20
21.931600570678711
10
22.373762130737305
20
22.022504806518555
10
22.461328506469727
20
22.119770050048828
10
22.541894912719727
20
22.222890853881836
10
22.615089416503906
20
22.331390380859375
10
22.680521011352539
20
22.444734573364258
10
22.737894058227539
20
22.562351226806641
10
22.786922454833984
20
22.683706283569336
10
22.827358245849609
20
22.808170318603516
10
22.859020233154297
20
22.935152053833008
10
22.881755828857422
20
23.064041137695312
10
22.895421981811523
20
23.194198608398438
10
22.899990081787109
20
23.324985504150391
10
22.895421981811523
20
23.455781936645508
10
22.881755828857422
20
23.585939407348633
10
22.859020233154297
20
23.714818954467773
10
22.827358245849609
20
23.84181022644043
10
22.786922454833984
20
23.966283798217773
10
22.737894058227539
20
24.087619781494141
10
22.680521011352539
20
24.205245971679688
10
22.615089416503906
20
24.31859016418457
10
22.541894912719727
20
24.427080154418945
10
22.461328506469727
20
24.530210494995117
10
22.373762130737305
20
24.627475738525391
10
22.27961540222168
20
24.718389511108398
10
22.179365158081055
20
24.80250358581543
10
22.073478698730469
20
24.879426956176758
10
21.962490081787109
20
24.94877815246582
10
21.846933364868164
20
25.010223388671875
10
21.727380752563477
20
25.063467025756836
10
21.604394912719727
20
25.108213424682617
10
21.478605270385742
20
25.144290924072266
10
21.350584030151367
20
25.171499252319336
10
21.220989227294922
20
25.189714431762695
10
21.090431213378906
20
25.198841094970703
10
16.209554672241211
20
25.198841094970703
10
16.079006195068359
20
25.189714431762695
10
15.949392318725586
20
25.171499252319336
10
15.821390151977539
20
25.144290924072266
10
15.695581436157227
20
25.108213424682617
10
15.572614669799805
20
25.063467025756836
10
15.453042984008789
20
25.010223388671875
10
15.337486267089844
20
24.94877815246582
10
15.226507186889648
20
24.879426956176758
10
15.120630264282227
20
24.80250358581543
10
15.020380020141602
20
24.718389511108398
10
14.926233291625977
20
24.627475738525391
10
14.838666915893555
20
24.530210494995117
10
14.758081436157227
20
24.427080154418945
10
14.684896469116211
20
24.31859016418457
10
14.619474411010742
20
24.205245971679688
10
14.562101364135742
20
24.087619781494141
10
14.513072967529297
20
23.966283798217773
10
14.472637176513672
20
23.84181022644043
10
14.440975189208984
20
23.714818954467773
10
14.418239593505859
20
23.585939407348633
10
14.404563903808594
20
23.455781936645508
10
14.399986267089844
20
23.324985504150391
10
14.404563903808594
20
23.194198608398438
10
14.418239593505859
20
23.064041137695312
10
14.440975189208984
20
22.935152053833008
10
14.472637176513672
20
22.808170318603516
10
14.513072967529297
20
22.683706283569336
10
14.562101364135742
20
22.562351226806641
10
14.619474411010742
20
22.444734573364258
10
14.684896469116211
20
22.331390380859375
10
14.758081436157227
20
22.222890853881836
10
14.838666915893555
20
22.119770050048828
10
14.926233291625977
20
22.022504806518555
10
15.020380020141602
20
21.931600570678711
10
15.120630264282227
20
21.847457885742188
10
15.226507186889648
20
21.770544052124023
10
15.337486267089844
20
21.701192855834961
10
15.453042984008789
20
21.639738082885742
10
15.572614669799805
20
21.586523056030273
10
15.695581436157227
20
21.541748046875
10
15.821390151977539
20
21.505680084228516
10
15.949392318725586
20
21.478471755981445
10
16.079006195068359
20
21.460256576538086
10
16.209554672241211
20
21.451129913330078
10
21.090431213378906
20
21.451129913330078
0
LWPOLYLINE
5
126
100
AcDbEntity
8
0
100
AcDbPolyline
90
6
70
1
43
0.0
10
50.649986267089844
20
108.52180480957031
10
56.649990081787109
20
111.98590278625488
10
56.649990081787109
20
118.91410827636719
10
50.649986267089844
20
122.37821578979492
10
44.649982452392578
20
118.91410827636719
10
44.649982452392578
20
111.98590278625488
0
LWPOLYLINE
5
127
100
AcDbEntity
8
0
100
AcDbPolyline
90
90
70
1
43
0.0
10
22.113523483276367
20
101.82340621948242
10
22.211904525756836
20
101.85920715332031
10
22.307548522949219
20
101.90179824829102
10
22.399988174438477
20
101.95095062255859
10
22.488775253295898
20
102.00643539428711
10
22.573480606079102
20
102.06796646118164
10
22.653694152832031
20
102.13527679443359
10
22.728996276855469
20
102.20800399780273
10
22.799062728881836
20
102.28580474853516
10
22.863521575927734
20
102.36831665039062
10
22.922067642211914
20
102.45511054992676
10
22.974424362182617
20
102.5457763671875
10
23.020315170288086
20
102.63988494873047
10
23.059530258178711
20
102.7369499206543
10
23.091878890991211
20
102.83653259277344
10
23.117208480834961
20
102.93811798095703
10
23.135404586791992
20
103.04122924804688
10
23.146343231201172
20
103.14535140991211
10
23.149986267089844
20
103.2499885559082
10
23.146343231201172
20
103.3546257019043
10
23.135404586791992
20
103.45874786376953
10
23.117208480834961
20
103.56185913085938
10
23.091878890991211
20
103.66344451904297
10
23.059530258178711
20
103.76301765441895
10
23.020315170288086
20
103.86009216308594
10
22.974424362182617
20
103.95420074462891
10
22.922067642211914
20
104.04485702514648
10
22.863521575927734
20
104.13166046142578
10
22.799062728881836
20
104.21417236328125
10
22.728996276855469
20
104.29197311401367
10
22.653694152832031
20
104.36470031738281
10
22.573480606079102
20
104.4320011138916
10
22.488775253295898
20
104.4935417175293
10
22.399988174438477
20
104.54902648925781
10
22.307548522949219
20
104.59817886352539
10
22.211904525756836
20
104.64076995849609
10
22.113523483276367
20
104.67657089233398
10
22.012872695922852
20
104.70542907714844
10
21.910467147827148
20
104.72719192504883
10
21.806783676147461
20
104.74176406860352
10
21.702337265014648
20
104.74906921386719
10
21.597652435302734
20
104.74906921386719
10
21.493206024169922
20
104.74176406860352
10
21.389522552490234
20
104.72719192504883
10
21.287107467651367
20
104.70542907714844
10
21.18647575378418
20
104.67657089233398
10
21.088085174560547
20
104.64076995849609
10
20.992441177368164
20
104.59817886352539
10
20.899991989135742
20
104.54902648925781
10
20.811195373535156
20
104.4935417175293
10
20.726499557495117
20
104.4320011138916
10
20.646295547485352
20
104.36470031738281
10
20.570974349975586
20
104.29197311401367
10
20.500926971435547
20
104.21417236328125
10
20.436468124389648
20
104.13166046142578
10
20.377922058105469
20
104.04485702514648
10
20.32557487487793
20
103.95420074462891
10
20.279674530029297
20
103.86009216308594
10
20.240459442138672
20
103.76301765441895
10
20.208110809326172
20
103.66344451904297
10
20.182781219482422
20
103.56185913085938
10
20.164594650268555
20
103.45874786376953
10
20.153646469116211
20
103.3546257019043
10
20.149984359741211
20
103.2499885559082
10
20.153646469116211
20
103.14535140991211
10
20.164594650268555
20
103.04122924804688
10
20.182781219482422
20
102.93811798095703
10
20.208110809326172
20
102.83653259277344
10
20.240459442138672
20
102.7369499206543
10
20.279674530029297
20
102.63988494873047
10
20.32557487487793
20
102.5457763671875
10
20.377922058105469
20
102.45511054992676
10
20.436468124389648
20
102.36831665039062
10
20.500926971435547
20
102.28580474853516
10
20.570974349975586
20
102.20800399780273
10
20.646295547485352
20
102.13527679443359
10
20.726499557495117
20
102.06796646118164
10
20.811195373535156
20
102.00643539428711
10
20.899991989135742
20
101.95095062255859
10
20.992441177368164
20
101.90179824829102
10
21.088085174560547
20
101.85920715332031
10
21.18647575378418
20
101.82340621948242
10
21.287107467651367
20
101.79454803466797
10
21.389522552490234
20
101.77277565002441
10
21.493206024169922
20
101.75820350646973
10
21.597652435302734
20
101.75090789794922
10
21.702337265014648
20
101.75090789794922
10
21.806783676147461
20
101.75820350646973
10
21.910467147827148
20
101.77277565002441
10
22.012872695922852
20
101.79454803466797
0
LWPOLYLINE
5
128
100
AcDbEntity
8
0
100
AcDbPolyline
90
90
70
1
43
0.0
10
95.635395050048828
20
103.04122924804688
10
95.646343231201172
20
103.14535140991211
10
95.649986267089844
20
103.2499885559082
10
95.646343231201172
20
103.3546257019043
10
95.635395050048828
20
103.45874786376953
10
95.617218017578125
20
103.56185913085938
10
95.591888427734375
20
103.66344451904297
10
95.559539794921875
20
103.76301765441895
10
95.52032470703125
20
103.86009216308594
10
95.474414825439453
20
103.95420074462891
10
95.422077178955078
20
104.04485702514648
10
95.363521575927734
20
104.13166046142578
10
95.299072265625
20
104.21417236328125
10
95.228996276855469
20
104.29197311401367
10
95.153694152832031
20
104.36470031738281
10
95.073490142822266
20
104.4320011138916
10
94.988784790039062
20
104.4935417175293
10
94.899997711181641
20
104.54902648925781
10
94.807548522949219
20
104.59817886352539
10
94.7119140625
20
104.64076995849609
10
94.613513946533203
20
104.67657089233398
10
94.512882232666016
20
104.70542907714844
10
94.410476684570312
20
104.72719192504883
10
94.306793212890625
20
104.74176406860352
10
94.202346801757812
20
104.74906921386719
10
94.097652435302734
20
104.74906921386719
10
93.993206024169922
20
104.74176406860352
10
93.889522552490234
20
104.72719192504883
10
93.787097930908203
20
104.70542907714844
10
93.686466217041016
20
104.67657089233398
10
93.588085174560547
20
104.64076995849609
10
93.492450714111328
20
104.59817886352539
10
93.399982452392578
20
104.54902648925781
10
93.311195373535156
20
104.4935417175293
10
93.226490020751953
20
104.4320011138916
10
93.146305084228516
20
104.36470031738281
10
93.07098388671875
20
104.29197311401367
10
93.000926971435547
20
104.21417236328125
10
92.936477661132812
20
104.13166046142578
10
92.877922058105469
20
104.04485702514648
10
92.825565338134766
20
103.95420074462891
10
92.779674530029297
20
103.86009216308594
10
92.740459442138672
20
103.76301765441895
10
92.708110809326172
20
103.66344451904297
10
92.682781219482422
20
103.56185913085938
10
92.664585113525391
20
103.45874786376953
10
92.653656005859375
20
103.3546257019043
10
92.649993896484375
20
103.2499885559082
10
92.653656005859375
20
103.14535140991211
10
92.664585113525391
20
103.04122924804688
10
92.682781219482422
20
102.93811798095703
10
92.708110809326172
20
102.83653259277344
10
92.740459442138672
20
102.7369499206543
10
92.779674530029297
20
102.63988494873047
10
92.825565338134766
20
102.5457763671875
10
92.877922058105469
20
102.45511054992676
10
92.936477661132812
20
102.36831665039062
10
93.000926971435547
20
102.28580474853516
10
93.07098388671875
20
102.20800399780273
10
93.146305084228516
20
102.13527679443359
10
93.226490020751953
20
102.06796646118164
10
93.311195373535156
20
102.00643539428711
10
93.399982452392578
20
101.95095062255859
10
93.492450714111328
20
101.90179824829102
10
93.588085174560547
20
101.85920715332031
10
93.686466217041016
20
101.82340621948242
10
93.787097930908203
20
101.79454803466797
10
93.889522552490234
20
101.77277565002441
10
93.993206024169922
20
101.75820350646973
10
94.097652435302734
20
101.75090789794922
10
94.202346801757812
20
101.75090789794922
10
94.306793212890625
20
101.75820350646973
10
94.410476684570312
20
101.77277565002441
10
94.512882232666016
20
101.79454803466797
10
94.613513946533203
20
101.82340621948242
10
94.7119140625
20
101.85920715332031
10
94.807548522949219
20
101.90179824829102
10
94.899997711181641
20
101.95095062255859
10
94.988784790039062
20
102.00643539428711
10
95.073490142822266
20
102.06796646118164
10
95.153694152832031
20
102.13527679443359
10
95.228996276855469
20
102.20800399780273
10
95.299072265625
20
102.28580474853516
10
95.363521575927734
20
102.36831665039062
10
95.422077178955078
20
102.45511054992676
10
95.474414825439453
20
102.5457763671875
10
95.52032470703125
20
102.63988494873047
10
95.559539794921875
20
102.7369499206543
10
95.591888427734375
20
102.83653259277344
10
95.617218017578125
20
102.93811798095703
0
LWPOLYLINE
5
129
100
AcDbEntity
8
0
100
AcDbPolyline
90
10
70
1
43
0.0
10
67.334957122802734
20
101.6584587097168
10
69.951648712158203
20
102.40879058837891
10
72.509651184082031
20
103.33981513977051
10
74.996471405029297
20
104.447021484375
10
77.399997711181641
20
105.7249927520752
10
77.649993896484375
20
105.8812141418457
10
77.649993896484375
20
106.78975105285645
10
71.649990081787109
20
110.25384902954102
10
65.649986267089844
20
106.78975105285645
10
65.649986267089844
20
101.30029678344727
0
LWPOLYLINE
5
130
100
AcDbEntity
8
0
100
AcDbPolyline
90
6
70
1
43
0.0
10
58.649997711181641
20
118.91410827636719
10
58.649997711181641
20
111.98590278625488
10
64.649982452392578
20
108.52180480957031
10
70.649986267089844
20
111.98590278625488
10
70.649986267089844
20
118.91410827636719
10
64.649982452392578
20
122.37821578979492
0
LWPOLYLINE
5
131
100
AcDbEntity
8
0
100
AcDbPolyline
90
6
70
1
43
0.0
10
94.548015594482422
20
152.83877372741699
10
95.389194488525391
20
150.24984359741211
10
96.047763824462891
20
147.60854721069336
10
96.172199249267578
20
146.90278053283691
10
93.649997711181641
20
148.35897445678711
10
93.649997711181641
20
155.06143569946289
0
LWPOLYLINE
5
132
100
AcDbEntity
8
0
100
AcDbPolyline
90
9
70
1
43
0.0
10
96.580371856689453
20
144.35771942138672
10
96.804981231689453
20
142.22049713134766
10
96.899986267089844
20
139.4999885559082
10
96.804981231689453
20
136.77947998046875
10
96.624832153320312
20
135.06538391113281
10
92.649993896484375
20
132.7705192565918
10
86.649990081787109
20
136.23461723327637
10
86.649990081787109
20
143.16282272338867
10
92.649993896484375
20
146.62692070007324
0
LWPOLYLINE
5
133
100
AcDbEntity
8
0
100
AcDbPolyline
90
7
70
1
43
0.0
10
95.389194488525391
20
128.7501335144043
10
96.047763824462891
20
131.39142990112305
10
96.250228881835938
20
132.53971099853516
10
93.649997711181641
20
131.03845596313477
10
93.649997711181641
20
124.11026000976562
10
93.706245422363281
20
124.07777786254883
10
94.548015594482422
20
126.16120338439941
0
LWPOLYLINE
5
134
100
AcDbEntity
8
0
100
AcDbPolyline
90
6
70
1
43
0.0
10
51.649990081787109
20
124.11026000976562
10
57.649993896484375
20
120.64615249633789
10
63.649997711181641
20
124.11026000976562
10
63.649997711181641
20
131.03845596313477
10
57.649993896484375
20
134.5025634765625
10
51.649990081787109
20
131.03845596313477
0
LWPOLYLINE
5
135
100
AcDbEntity
8
0
100
AcDbPolyline
90
6
70
1
43
0.0
10
36.649990081787109
20
108.52180480957031
10
42.649993896484375
20
111.98590278625488
10
42.649993896484375
20
118.91410827636719
10
36.649990081787109
20
122.37821578979492
10
30.649986267089844
20
118.91410827636719
10
30.649986267089844
20
111.98590278625488
0
LWPOLYLINE
5
136
100
AcDbEntity
8
0
100
AcDbPolyline
90
6
70
1
43
0.0
10
43.649997711181641
20
120.64615249633789
10
49.649982452392578
20
124.11026000976562
10
49.649982452392578
20
131.03845596313477
10
43.649997711181641
20
134.5025634765625
10
37.649993896484375
20
131.03845596313477
10
37.649993896484375
20
124.11026000976562
0
LWPOLYLINE
5
137
100
AcDbEntity
8
0
100
AcDbPolyline
90
6
70
1
43
0.0
10
20.410795211791992
20
150.24984359741211
10
21.251974105834961
20
152.83877372741699
10
21.649990081787109
20
153.82389068603516
10
21.649990081787109
20
148.35897445678711
10
19.684457778930664
20
147.22416877746582
10
19.752235412597656
20
147.60854721069336
0
LWPOLYLINE
5
138
100
AcDbEntity
8
0
100
AcDbPolyline
90
9
70
1
43
0.0
10
18.994989395141602
20
142.22049713134766
10
19.251928329467773
20
144.6650505065918
10
22.649984359741211
20
146.62692070007324
10
28.649988174438477
20
143.16282272338867
10
28.649988174438477
20
136.23461723327637
10
22.649984359741211
20
132.7705192565918
10
19.207448959350586
20
134.75807189941406
10
18.994989395141602
20
136.77947998046875
10
18.899984359741211
20
139.4999885559082
0
LWPOLYLINE
5
139
100
AcDbEntity
8
0
100
AcDbPolyline
90
6
70
1
43
0.0
10
19.752235412597656
20
131.39142990112305
10
20.410795211791992
20
128.7501335144043
10
21.251974105834961
20
126.16120338439941
10
21.649990081787109
20
125.17608642578125
10
21.649990081787109
20
131.03845596313477
10
19.606437683105469
20
132.21831321716309
0
LWPOLYLINE
5
140
100
AcDbEntity
8
0
100
AcDbPolyline
90
90
70
1
43
0.0
10
95.635395050048828
20
175.54122924804688
10
95.646343231201172
20
175.64535140991211
10
95.649986267089844
20
175.7499885559082
10
95.646343231201172
20
175.8546257019043
10
95.635395050048828
20
175.95874786376953
10
95.617218017578125
20
176.06185913085938
10
95.591888427734375
20
176.16344451904297
10
95.559539794921875
20
176.26302719116211
10
95.52032470703125
20
176.36009216308594
10
95.474414825439453
20
176.45420074462891
10
95.422077178955078
20
176.54487609863281
10
95.363521575927734
20
176.63166046142578
10
95.299072265625
20
176.71417236328125
10
95.228996276855469
20
176.79197311401367
10
95.153694152832031
20
176.86470031738281
10
95.073490142822266
20
176.93201065063477
10
94.988784790039062
20
176.9935417175293
10
94.899997711181641
20
177.04902648925781
10
94.807548522949219
20
177.09817886352539
10
94.7119140625
20
177.14076995849609
10
94.613513946533203
20
177.17657089233398
10
94.512882232666016
20
177.20542907714844
10
94.410476684570312
20
177.22719192504883
10
94.306793212890625
20
177.24176406860352
10
94.202346801757812
20
177.24906921386719
10
94.097652435302734
20
177.24906921386719
10
93.993206024169922
20
177.24176406860352
10
93.889522552490234
20
177.22719192504883
10
93.787097930908203
20
177.20542907714844
10
93.686466217041016
20
177.17657089233398
10
93.588085174560547
20
177.14076995849609
10
93.492450714111328
20
177.09817886352539
10
93.399982452392578
20
177.04902648925781
10
93.311195373535156
20
176.9935417175293
10
93.226490020751953
20
176.93201065063477
10
93.146305084228516
20
176.86470031738281
10
93.07098388671875
20
176.79197311401367
10
93.000926971435547
20
176.71417236328125
10
92.936477661132812
20
176.63166046142578
10
92.877922058105469
20
176.54487609863281
10
92.825565338134766
20
176.45420074462891
10
92.779674530029297
20
176.36009216308594
10
92.740459442138672
20
176.26302719116211
10
92.708110809326172
20
176.16344451904297
10
92.682781219482422
20
176.06185913085938
10
92.664585113525391
20
175.95874786376953
10
92.653656005859375
20
175.8546257019043
10
92.649993896484375
20
175.7499885559082
10
92.653656005859375
20
175.64535140991211
10
92.664585113525391
20
175.54122924804688
10
92.682781219482422
20
175.43811798095703
10
92.708110809326172
20
175.33653259277344
10
92.740459442138672
20
175.2369499206543
10
92.779674530029297
20
175.13988494873047
10
92.825565338134766
20
175.0457763671875
10
92.877922058105469
20
174.95510101318359
10
92.936477661132812
20
174.86831665039062
10
93.000926971435547
20
174.78580474853516
10
93.07098388671875
20
174.70800399780273
10
93.146305084228516
20
174.63527679443359
10
93.226490020751953
20
174.56796646118164
10
93.311195373535156
20
174.50643539428711
10
93.399982452392578
20
174.45095062255859
10
93.492450714111328
20
174.40179824829102
10
93.588085174560547
20
174.35920715332031
10
93.686466217041016
20
174.32340621948242
10
93.787097930908203
20
174.29454803466797
10
93.889522552490234
20
174.27278518676758
10
93.993206024169922
20
174.25821304321289
10
94.097652435302734
20
174.25090789794922
10
94.202346801757812
20
174.25090789794922
10
94.306793212890625
20
174.25821304321289
10
94.410476684570312
20
174.27278518676758
10
94.512882232666016
20
174.29454803466797
10
94.613513946533203
20
174.32340621948242
10
94.7119140625
20
174.35920715332031
10
94.807548522949219
20
174.40179824829102
10
94.899997711181641
20
174.45095062255859
10
94.988784790039062
20
174.50643539428711
10
95.073490142822266
20
174.56796646118164
10
95.153694152832031
20
174.63527679443359
10
95.228996276855469
20
174.70800399780273
10
95.299072265625
20
174.78580474853516
10
95.363521575927734
20
174.86831665039062
10
95.422077178955078
20
174.95510101318359
10
95.474414825439453
20
175.0457763671875
10
95.52032470703125
20
175.13988494873047
10
95.559539794921875
20
175.2369499206543
10
95.591888427734375
20
175.33653259277344
10
95.617218017578125
20
175.43811798095703
0
LWPOLYLINE
5
141
100
AcDbEntity
8
0
100
AcDbPolyline
90
8
70
1
43
0.0
10
92.334957122802734
20
157.80938148498535
10
92.704868316650391
20
157.0509147644043
10
92.649993896484375
20
157.01922416687012
10
86.649990081787109
20
160.48332214355469
10
86.649990081787109
20
165.8189582824707
10
87.775726318359375
20
164.56871032714844
10
89.451656341552734
20
162.42361068725586
10
90.973873138427734
20
160.16683578491211
0
LWPOLYLINE
5
142
100
AcDbEntity
8
0
100
AcDbPolyline
90
6
70
1
43
0.0
10
65.649986267089844
20
131.03845596313477
10
65.649986267089844
20
124.11026000976562
10
71.649990081787109
20
120.64615249633789
10
77.649993896484375
20
124.11026000976562
10
77.649993896484375
20
131.03845596313477
10
71.649990081787109
20
134.5025634765625
0
LWPOLYLINE
5
143
100
AcDbEntity
8
0
100
AcDbPolyline
90
90
70
1
43
0.0
10
20.377922058105469
20
174.95510101318359
10
20.436468124389648
20
174.86831665039062
10
20.500926971435547
20
174.78580474853516
10
20.570974349975586
20
174.70800399780273
10
20.646295547485352
20
174.63527679443359
10
20.726499557495117
20
174.56796646118164
10
20.811195373535156
20
174.50643539428711
10
20.899991989135742
20
174.45095062255859
10
20.992441177368164
20
174.40179824829102
10
21.088085174560547
20
174.35920715332031
10
21.18647575378418
20
174.32340621948242
10
21.287107467651367
20
174.29454803466797
10
21.389522552490234
20
174.27278518676758
10
21.493206024169922
20
174.25821304321289
10
21.597652435302734
20
174.25090789794922
10
21.702337265014648
20
174.25090789794922
10
21.806783676147461
20
174.25821304321289
10
21.910467147827148
20
174.27278518676758
10
22.012872695922852
20
174.29454803466797
10
22.113523483276367
20
174.32340621948242
10
22.211904525756836
20
174.35920715332031
10
22.307548522949219
20
174.40179824829102
10
22.399988174438477
20
174.45095062255859
10
22.488775253295898
20
174.50643539428711
10
22.573480606079102
20
174.56796646118164
10
22.653694152832031
20
174.63527679443359
10
22.728996276855469
20
174.70800399780273
10
22.799062728881836
20
174.78580474853516
10
22.863521575927734
20
174.86831665039062
10
22.922067642211914
20
174.95510101318359
10
22.974424362182617
20
175.0457763671875
10
23.020315170288086
20
175.13988494873047
10
23.059530258178711
20
175.2369499206543
10
23.091878890991211
20
175.33653259277344
10
23.117208480834961
20
175.43811798095703
10
23.135404586791992
20
175.54122924804688
10
23.146343231201172
20
175.64535140991211
10
23.149986267089844
20
175.7499885559082
10
23.146343231201172
20
175.8546257019043
10
23.135404586791992
20
175.95874786376953
10
23.117208480834961
20
176.06185913085938
10
23.091878890991211
20
176.16344451904297
10
23.059530258178711
20
176.26302719116211
10
23.020315170288086
20
176.36009216308594
10
22.974424362182617
20
176.45420074462891
10
22.922067642211914
20
176.54487609863281
10
22.863521575927734
20
176.63166046142578
10
22.799062728881836
20
176.71417236328125
10
22.728996276855469
20
176.79197311401367
10
22.653694152832031
20
176.86470031738281
10
22.573480606079102
20
176.93201065063477
10
22.488775253295898
20
176.9935417175293
10
22.399988174438477
20
177.04902648925781
10
22.307548522949219
20
177.09817886352539
10
22.211904525756836
20
177.14076995849609
10
22.113523483276367
20
177.17657089233398
10
22.012872695922852
20
177.20542907714844
10
21.910467147827148
20
177.22719192504883
10
21.806783676147461
20
177.24176406860352
10
21.702337265014648
20
177.24906921386719
10
21.597652435302734
20
177.24906921386719
10
21.493206024169922
20
177.24176406860352
10
21.389522552490234
20
177.22719192504883
10
21.287107467651367
20
177.20542907714844
10
21.18647575378418
20
177.17657089233398
10
21.088085174560547
20
177.14076995849609
10
20.992441177368164
20
177.09817886352539
10
20.899991989135742
20
177.04902648925781
10
20.811195373535156
20
176.9935417175293
10
20.726499557495117
20
176.93201065063477
10
20.646295547485352
20
176.86470031738281
10
20.570974349975586
20
176.79197311401367
10
20.500926971435547
20
176.71417236328125
10
20.436468124389648
20
176.63166046142578
10
20.377922058105469
20
176.54487609863281
10
20.32557487487793
20
176.45420074462891
10
20.279674530029297
20
176.36009216308594
10
20.240459442138672
20
176.26302719116211
10
20.208110809326172
20
176.16344451904297
10
20.182781219482422
20
176.06185913085938
10
20.164594650268555
20
175.95874786376953
10
20.153646469116211
20
175.8546257019043
10
20.149984359741211
20
175.7499885559082
10
20.153646469116211
20
175.64535140991211
10
20.164594650268555
20
175.54122924804688
10
20.182781219482422
20
175.43811798095703
10
20.208110809326172
20
175.33653259277344
10
20.240459442138672
20
175.2369499206543
10
20.279674530029297
20
175.13988494873047
10
20.32557487487793
20
175.0457763671875
0
LWPOLYLINE
5
144
100
AcDbEntity
8
0
100
AcDbPolyline
90
7
70
1
43
0.0
10
23.248071670532227
20
157.36452102661133
10
23.465032577514648
20
157.80938148498535
10
24.826116561889648
20
160.16683578491211
10
26.348333358764648
20
162.42361068725586
10
28.024253845214844
20
164.56871032714844
10
28.649988174438477
20
165.26365280151367
10
28.649988174438477
20
160.48332214355469
0
LWPOLYLINE
5
145
100
AcDbEntity
8
0
100
AcDbPolyline
90
6
70
1
43
0.0
10
23.649988174438477
20
155.28717041015625
10
23.649988174438477
20
148.35897445678711
10
29.649991989135742
20
144.89486694335938
10
35.649986267089844
20
148.35897445678711
10
35.649986267089844
20
155.28717041015625
10
29.649991989135742
20
158.75127792358398
0
LWPOLYLINE
5
146
100
AcDbEntity
8
0
100
AcDbPolyline
90
6
70
1
43
0.0
10
23.649988174438477
20
131.03845596313477
10
23.649988174438477
20
124.11026000976562
10
29.649991989135742
20
120.64615249633789
10
35.649986267089844
20
124.11026000976562
10
35.649986267089844
20
131.03845596313477
10
29.649991989135742
20
134.5025634765625
0
LWPOLYLINE
5
147
100
AcDbEntity
8
0
100
AcDbPolyline
90
9
70
1
43
0.0
10
56.538925170898438
20
178.47623825073242
10
59.261074066162109
20
178.47623825073242
10
61.976604461669922
20
178.28634262084961
10
63.649997711181641
20
178.05116653442383
10
63.649997711181641
20
172.60768890380859
10
57.649993896484375
20
169.14358139038086
10
51.649990081787109
20
172.60768890380859
10
51.649990081787109
20
177.98089981079102
10
53.823394775390625
20
178.28634262084961
0
LWPOLYLINE
5
148
100
AcDbEntity
8
0
100
AcDbPolyline
90
6
70
1
43
0.0
10
91.649990081787109
20
155.28717041015625
10
91.649990081787109
20
148.35897445678711
10
85.649986267089844
20
144.89486694335938
10
79.649982452392578
20
148.35897445678711
10
79.649982452392578
20
155.28717041015625
10
85.649986267089844
20
158.75127792358398
0
LWPOLYLINE
5
149
100
AcDbEntity
8
0
100
AcDbPolyline
90
6
70
1
43
0.0
10
91.649990081787109
20
131.03845596313477
10
91.649990081787109
20
124.11026000976562
10
85.649986267089844
20
120.64615249633789
10
79.649982452392578
20
124.11026000976562
10
79.649982452392578
20
131.03845596313477
10
85.649986267089844
20
134.5025634765625
0
LWPOLYLINE
5
150
100
AcDbEntity
8
0
100
AcDbPolyline
90
6
70
1
43
0.0
10
72.649993896484375
20
118.91410827636719
10
72.649993896484375
20
111.98590278625488
10
78.649997711181641
20
108.52180480957031
10
84.649982452392578
20
111.98590278625488
10
84.649982452392578
20
118.91410827636719
10
78.649997711181641
20
122.37821578979492
0
LWPOLYLINE
5
151
100
AcDbEntity
8
0
100
AcDbPolyline
90
6
70
1
43
0.0
10
50.649986267089844
20
132.7705192565918
10
56.649990081787109
20
136.23461723327637
10
56.649990081787109
20
143.16282272338867
10
50.649986267089844
20
146.62692070007324
10
44.649982452392578
20
143.16282272338867
10
44.649982452392578
20
136.23461723327637
0
LWPOLYLINE
5
152
100
AcDbEntity
8
0
100
AcDbPolyline
90
6
70
1
43
0.0
10
58.649997711181641
20
136.23461723327637
10
64.649982452392578
20
132.7705192565918
10
70.649986267089844
20
136.23461723327637
10
70.649986267089844
20
143.16282272338867
10
64.649982452392578
20
146.62692070007324
10
58.649997711181641
20
143.16282272338867
0
LWPOLYLINE
5
153
100
AcDbEntity
8
0
100
AcDbPolyline
90
7
70
1
43
0.0
10
28.649988174438477
20
118.91410827636719
10
28.649988174438477
20
113.73632431030273
10
28.024253845214844
20
114.43126678466797
10
26.348333358764648
20
116.57636642456055
10
24.826116561889648
20
118.8331413269043
10
23.465032577514648
20
121.19059562683105
10
22.978239059448242
20
122.18870162963867
0
LWPOLYLINE
5
154
100
AcDbEntity
8
0
100
AcDbPolyline
90
6
70
1
43
0.0
10
36.649990081787109
20
132.7705192565918
10
42.649993896484375
20
136.23461723327637
10
42.649993896484375
20
143.16282272338867
10
36.649990081787109
20
146.62692070007324
10
30.649986267089844
20
143.16282272338867
10
30.649986267089844
20
136.23461723327637
0
LWPOLYLINE
5
155
100
AcDbEntity
8
0
100
AcDbPolyline
90
6
70
1
43
0.0
10
84.649982452392578
20
143.16282272338867
10
84.649982452392578
20
136.23461723327637
10
78.649997711181641
20
132.7705192565918
10
72.649993896484375
20
136.23461723327637
10
72.649993896484375
20
143.16282272338867
10
78.649997711181641
20
146.62692070007324
0
LWPOLYLINE
5
156
100
AcDbEntity
8
0
100
AcDbPolyline
90
8
70
1
43
0.0
10
92.649993896484375
20
122.37821578979492
10
92.85614013671875
20
122.25919723510742
10
92.334957122802734
20
121.19059562683105
10
90.973873138427734
20
118.8331413269043
10
89.451656341552734
20
116.57636642456055
10
87.775726318359375
20
114.43126678466797
10
86.649990081787109
20
113.1810188293457
10
86.649990081787109
20
118.91410827636719
0
LWPOLYLINE
5
157
100
AcDbEntity
8
0
100
AcDbPolyline
90
10
70
1
43
0.0
10
48.465042114257812
20
177.34151840209961
10
49.649982452392578
20
177.5933837890625
10
49.649982452392578
20
172.60768890380859
10
43.649997711181641
20
169.14358139038086
10
37.649993896484375
20
172.60768890380859
10
37.649993896484375
20
172.80632019042969
10
38.399982452392578
20
173.27497482299805
10
40.80352783203125
20
174.55295562744141
10
43.290348052978516
20
175.66015243530273
10
45.848331451416016
20
176.5911865234375
0
LWPOLYLINE
5
158
100
AcDbEntity
8
0
100
AcDbPolyline
90
7
70
1
43
0.0
10
30.761251449584961
20
167.47577667236328
10
36.649990081787109
20
170.87562561035156
10
42.649993896484375
20
167.41153717041016
10
42.649993896484375
20
160.48332214355469
10
36.649990081787109
20
157.01922416687012
10
30.649986267089844
20
160.48332214355469
10
30.649986267089844
20
167.36831665039062
0
LWPOLYLINE
5
159
100
AcDbEntity
8
0
100
AcDbPolyline
90
6
70
1
43
0.0
10
58.649997711181641
20
167.41153717041016
10
64.649982452392578
20
170.87562561035156
10
70.649986267089844
20
167.41153717041016
10
70.649986267089844
20
160.48332214355469
10
64.649982452392578
20
157.01922416687012
10
58.649997711181641
20
160.48332214355469
0
LWPOLYLINE
5
160
100
AcDbEntity
8
0
100
AcDbPolyline
90
10
70
1
43
0.0
10
65.649986267089844
20
177.69966125488281
10
65.649986267089844
20
172.60768890380859
10
71.649990081787109
20
169.14358139038086
10
77.649993896484375
20
172.60768890380859
10
77.649993896484375
20
173.1187629699707
10
77.399997711181641
20
173.27497482299805
10
74.996471405029297
20
174.55295562744141
10
72.509651184082031
20
175.66015243530273
10
69.951648712158203
20
176.5911865234375
10
67.334957122802734
20
177.34151840209961
0
LWPOLYLINE
5
161
100
AcDbEntity
8
0
100
AcDbPolyline
90
6
70
1
43
0.0
10
78.649997711181641
20
170.87562561035156
10
84.649982452392578
20
167.41153717041016
10
84.649982452392578
20
160.48332214355469
10
78.649997711181641
20
157.01922416687012
10
72.649993896484375
20
160.48332214355469
10
72.649993896484375
20
167.41153717041016
0
LWPOLYLINE
5
162
100
AcDbEntity
8
0
100
AcDbPolyline
90
6
70
1
43
0.0
10
51.649990081787109
20
148.35897445678711
10
57.649993896484375
20
144.89486694335938
10
63.649997711181641
20
148.35897445678711
10
63.649997711181641
20
155.28717041015625
10
57.649993896484375
20
158.75127792358398
10
51.649990081787109
20
155.28717041015625
0
LWPOLYLINE
5
163
100
AcDbEntity
8
0
100
AcDbPolyline
90
6
70
1
43
0.0
10
43.649997711181641
20
144.89486694335938
10
49.649982452392578
20
148.35897445678711
10
49.649982452392578
20
155.28717041015625
10
43.649997711181641
20
158.75127792358398
10
37.649993896484375
20
155.28717041015625
10
37.649993896484375
20
148.35897445678711
0
LWPOLYLINE
5
164
100
AcDbEntity
8
0
100
AcDbPolyline
90
6
70
1
43
0.0
10
65.649986267089844
20
148.35897445678711
10
71.649990081787109
20
144.89486694335938
10
77.649993896484375
20
148.35897445678711
10
77.649993896484375
20
155.28717041015625
10
71.649990081787109
20
158.75127792358398
10
65.649986267089844
20
155.28717041015625
0
LWPOLYLINE
5
165
100
AcDbEntity
8
0
100
AcDbPolyline
90
6
70
1
43
0.0
10
50.649986267089844
20
170.87562561035156
10
56.649990081787109
20
167.41153717041016
10
56.649990081787109
20
160.48332214355469
10
50.649986267089844
20
157.01922416687012
10
44.649982452392578
20
160.48332214355469
10
44.649982452392578
20
167.41153717041016
0
LWPOLYLINE
5
166
100
AcDbEntity
8
0
100
AcDbPolyline
90
140
70
1
43
0.0
10
181.510009765625
20
183.49998474121094
10
181.510009765625
20
179.74998474121094
10
191.510009765625
20
179.74998474121094
10
191.510009765625
20
177.49998092651367
10
171.26001358032227
20
177.49998092651367
10
171.26001358032227
20
183.49998474121094
10
140.49999237060547
20
183.49998474121094
10
140.29073715209961
20
183.49267959594727
10
140.08249282836914
20
183.47078323364258
10
139.87625122070312
20
183.43442916870117
10
139.67309951782227
20
183.38376998901367
10
139.47393417358398
20
183.31907272338867
10
139.27978515625
20
183.24062347412109
10
139.09158706665039
20
183.14882278442383
10
138.91023635864258
20
183.04412841796875
10
138.73662948608398
20
182.92703628540039
10
138.57162475585938
20
182.79811859130859
10
138.4160041809082
20
182.65800476074219
10
138.27056884765625
20
182.50738143920898
10
138.13594818115234
20
182.34697341918945
10
138.01286697387695
20
182.17756271362305
10
137.90191650390625
20
181.9999885559082
10
137.80361175537109
20
181.81510925292969
10
137.71844863891602
20
181.62380218505859
10
137.64680862426758
20
181.42704010009766
10
137.589111328125
20
181.22575759887695
10
137.54556655883789
20
181.02092742919922
10
137.51644134521484
20
180.81357955932617
10
137.5018310546875
20
180.60468673706055
10
137.5018310546875
20
149.4999885559082
10
140.260009765625
20
149.4999885559082
10
140.260009765625
20
159.4999885559082
10
142.51001358032227
20
159.4999885559082
10
142.51001358032227
20
139.24999237060547
10
137.5018310546875
20
139.24999237060547
10
137.5018310546875
20
24.199981689453125
10
140.260009765625
20
24.199981689453125
10
140.260009765625
20
34.199981689453125
10
142.51001358032227
20
34.199981689453125
10
142.51001358032227
20
13.949985504150391
10
137.5018310546875
20
13.949985504150391
10
137.5018310546875
20
5.0952911376953125
10
137.51644134521484
20
4.8863983154296875
10
137.54556655883789
20
4.6790504455566406
10
137.589111328125
20
4.4742202758789062
10
137.64680862426758
20
4.2729377746582031
10
137.71844863891602
20
4.0761756896972656
10
137.80361175537109
20
3.8848686218261719
10
137.90191650390625
20
3.6999893188476562
10
138.01286697387695
20
3.5223960876464844
10
138.13594818115234
20
3.3530044555664062
10
138.27056884765625
20
3.192596435546875
10
138.4160041809082
20
3.0419540405273438
10
138.57162475585938
20
2.9018592834472656
10
138.73662948608398
20
2.7729415893554688
10
138.91023635864258
20
2.6558303833007812
10
139.09158706665039
20
2.5511550903320312
10
139.27978515625
20
2.4593544006347656
10
139.47393417358398
20
2.3809051513671875
10
139.67309951782227
20
2.3162078857421875
10
139.87625122070312
20
2.2655487060546875
10
140.08249282836914
20
2.2291946411132812
10
140.29073715209961
20
2.2072982788085938
10
140.49999237060547
20
2.1999740600585938
10
171.26001358032227
20
2.1999740600585938
10
171.26001358032227
20
8.1999778747558594
10
191.48998260498047
20
8.1999778747558594
10
191.48998260498047
20
5.9499740600585938
10
181.510009765625
20
5.9499740600585938
10
181.510009765625
20
2.1999740600585938
10
285.23998260498047
20
2.1999740600585938
10
285.23998260498047
20
8.1999778747558594
10
305.48999786376953
20
8.1999778747558594
10
305.48999786376953
20
5.9499740600585938
10
295.48999786376953
20
5.9499740600585938
10
295.48999786376953
20
2.1999740600585938
10
316.50001525878906
20
2.1999740600585938
10
316.70925140380859
20
2.2072982788085938
10
316.91749572753906
20
2.2291946411132812
10
317.12375640869141
20
2.2655487060546875
10
317.32688903808594
20
2.3162078857421875
10
317.52605438232422
20
2.3809051513671875
10
317.72022247314453
20
2.4593544006347656
10
317.90840148925781
20
2.5511550903320312
10
318.08975219726562
20
2.6558303833007812
10
318.26335906982422
20
2.7729415893554688
10
318.42838287353516
20
2.9018592834472656
10
318.583984375
20
3.0419540405273438
10
318.72943878173828
20
3.192596435546875
10
318.86405944824219
20
3.3530044555664062
10
318.98712158203125
20
3.5223960876464844
10
319.09809112548828
20
3.6999893188476562
10
319.19639587402344
20
3.8848686218261719
10
319.28153991699219
20
4.0761756896972656
10
319.35317993164062
20
4.2729377746582031
10
319.41089630126953
20
4.4742202758789062
10
319.45442199707031
20
4.6790504455566406
10
319.48356628417969
20
4.8863983154296875
10
319.49817657470703
20
5.0952911376953125
10
319.49817657470703
20
13.949985504150391
10
314.50000762939453
20
13.949985504150391
10
314.50000762939453
20
34.199981689453125
10
316.74999237060547
20
34.199981689453125
10
316.74999237060547
20
24.199981689453125
10
319.49817657470703
20
24.199981689453125
10
319.49817657470703
20
139.24999237060547
10
314.50000762939453
20
139.24999237060547
10
314.50000762939453
20
159.4999885559082
10
316.74999237060547
20
159.4999885559082
10
316.74999237060547
20
149.4999885559082
10
319.49817657470703
20
149.4999885559082
10
319.49817657470703
20
180.60468673706055
10
319.48356628417969
20
180.81357955932617
10
319.45442199707031
20
181.02092742919922
10
319.41089630126953
20
181.22575759887695
10
319.35317993164062
20
181.42704010009766
10
319.28153991699219
20
181.62380218505859
10
319.19639587402344
20
181.81510925292969
10
319.09809112548828
20
181.9999885559082
10
318.98712158203125
20
182.17756271362305
10
318.86405944824219
20
182.34697341918945
10
318.72943878173828
20
182.50738143920898
10
318.583984375
20
182.65800476074219
10
318.42838287353516
20
182.79811859130859
10
318.26335906982422
20
182.92703628540039
10
318.08975219726562
20
183.04412841796875
10
317.90840148925781
20
183.14882278442383
10
317.72022247314453
20
183.24062347412109
10
317.52605438232422
20
183.31907272338867
10
317.32688903808594
20
183.38376998901367
10
317.12375640869141
20
183.43442916870117
10
316.91749572753906
20
183.47078323364258
10
316.70925140380859
20
183.49267959594727
10
316.50001525878906
20
183.49998474121094
10
295.48999786376953
20
183.49998474121094
10
295.48999786376953
20
179.74998474121094
10
305.48999786376953
20
179.74998474121094
10
305.48999786376953
20
177.49998092651367
10
285.23998260498047
20
177.49998092651367
10
285.23998260498047
20
183.49998474121094
0
LWPOLYLINE
5
167
100
AcDbEntity
8
0
100
AcDbPolyline
90
90
70
1
43
0.0
10
236.15585327148438
20
134.7490119934082
10
236.26724243164062
20
134.74122047424316
10
236.37783050537109
20
134.72568511962891
10
236.48704528808594
20
134.70245361328125
10
236.59442901611328
20
134.67167854309082
10
236.69937133789062
20
134.63348388671875
10
236.80137634277344
20
134.58805084228516
10
236.89998626708984
20
134.5356273651123
10
236.99470520019531
20
134.4764518737793
10
237.08503723144531
20
134.41080093383789
10
237.17063903808594
20
134.33901786804199
10
237.25093841552734
20
134.26143646240234
10
237.32566833496094
20
134.17844772338867
10
237.39444732666016
20
134.0904426574707
10
237.45689392089844
20
133.99785995483398
10
237.51274108886719
20
133.90113830566406
10
237.56168365478516
20
133.80077362060547
10
237.60353088378906
20
133.69722366333008
10
237.63801574707031
20
133.59100341796875
10
237.66502380371094
20
133.48264694213867
10
237.68440246582031
20
133.3726692199707
10
237.69611358642578
20
133.26160430908203
10
237.70000457763672
20
133.14998626708984
10
237.69611358642578
20
133.03837776184082
10
237.68440246582031
20
132.92730331420898
10
237.66502380371094
20
132.81732559204102
10
237.63801574707031
20
132.70896911621094
10
237.60353088378906
20
132.60274887084961
10
237.56168365478516
20
132.49920845031738
10
237.51274108886719
20
132.39883422851562
10
237.45689392089844
20
132.3021125793457
10
237.39444732666016
20
132.20952987670898
10
237.32566833496094
20
132.12152481079102
10
237.25093841552734
20
132.03853607177734
10
237.17063903808594
20
131.9609546661377
10
237.08503723144531
20
131.8891716003418
10
236.99470520019531
20
131.82352066040039
10
236.89998626708984
20
131.76434516906738
10
236.80137634277344
20
131.71192169189453
10
236.69937133789062
20
131.66648864746094
10
236.59442901611328
20
131.62830352783203
10
236.48704528808594
20
131.59751892089844
10
236.37783050537109
20
131.57429695129395
10
236.26724243164062
20
131.55875205993652
10
236.15585327148438
20
131.55096054077148
10
229.6441650390625
20
131.55096054077148
10
229.53273773193359
20
131.55875205993652
10
229.42214965820312
20
131.57429695129395
10
229.31293487548828
20
131.59751892089844
10
229.20555114746094
20
131.62830352783203
10
229.10060882568359
20
131.66648864746094
10
228.99860382080078
20
131.71192169189453
10
228.89999389648438
20
131.76434516906738
10
228.80531311035156
20
131.82352066040039
10
228.71494293212891
20
131.8891716003418
10
228.62937927246094
20
131.9609546661377
10
228.54907989501953
20
132.03853607177734
10
228.47434997558594
20
132.12152481079102
10
228.40557098388672
20
132.20952987670898
10
228.34312438964844
20
132.3021125793457
10
228.28727722167969
20
132.39883422851562
10
228.23833465576172
20
132.49920845031738
10
228.19648742675781
20
132.60274887084961
10
228.16200256347656
20
132.70896911621094
10
228.13495635986328
20
132.81732559204102
10
228.11557769775391
20
132.92730331420898
10
228.10390472412109
20
133.03837776184082
10
228.10001373291016
20
133.14998626708984
10
228.10390472412109
20
133.26160430908203
10
228.11557769775391
20
133.3726692199707
10
228.13495635986328
20
133.48264694213867
10
228.16200256347656
20
133.59100341796875
10
228.19648742675781
20
133.69722366333008
10
228.23833465576172
20
133.80077362060547
10
228.28727722167969
20
133.90113830566406
10
228.34312438964844
20
133.99785995483398
10
228.40557098388672
20
134.0904426574707
10
228.47434997558594
20
134.17844772338867
10
228.54907989501953
20
134.26143646240234
10
228.62937927246094
20
134.33901786804199
10
228.71494293212891
20
134.41080093383789
10
228.80531311035156
20
134.4764518737793
10
228.89999389648438
20
134.5356273651123
10
228.99860382080078
20
134.58805084228516
10
229.10060882568359
20
134.63348388671875
10
229.20555114746094
20
134.67167854309082
10
229.31293487548828
20
134.70245361328125
10
229.42214965820312
20
134.72568511962891
10
229.53273773193359
20
134.74122047424316
10
229.6441650390625
20
134.7490119934082
0
LWPOLYLINE
5
168
100
AcDbEntity
8
0
100
AcDbPolyline
90
90
70
1
43
0.0
10
289.34413909912109
20
134.7490119934082
10
295.85582733154297
20
134.7490119934082
10
295.96725463867188
20
134.74122047424316
10
296.07784271240234
20
134.72568511962891
10
296.18705749511719
20
134.70245361328125
10
296.29444122314453
20
134.67167854309082
10
296.39938354492188
20
134.63348388671875
10
296.50138854980469
20
134.58805084228516
10
296.59999847412109
20
134.5356273651123
10
296.69471740722656
20
134.4764518737793
10
296.78504943847656
20
134.41080093383789
10
296.87061309814453
20
134.33901786804199
10
296.95095062255859
20
134.26143646240234
10
297.02568054199219
20
134.17844772338867
10
297.09442138671875
20
134.0904426574707
10
297.15690612792969
20
133.99785995483398
10
297.21271514892578
20
133.90113830566406
10
297.26165771484375
20
133.80077362060547
10
297.30350494384766
20
133.69722366333008
10
297.33802795410156
20
133.59100341796875
10
297.36503601074219
20
133.48264694213867
10
297.38441467285156
20
133.3726692199707
10
297.39612579345703
20
133.26160430908203
10
297.39997863769531
20
133.14998626708984
10
297.39612579345703
20
133.03837776184082
10
297.38441467285156
20
132.92730331420898
10
297.36503601074219
20
132.81732559204102
10
297.33802795410156
20
132.70896911621094
10
297.30350494384766
20
132.60274887084961
10
297.26165771484375
20
132.49920845031738
10
297.21271514892578
20
132.39883422851562
10
297.15690612792969
20
132.3021125793457
10
297.09442138671875
20
132.20952987670898
10
297.02568054199219
20
132.12152481079102
10
296.95095062255859
20
132.03853607177734
10
296.87061309814453
20
131.9609546661377
10
296.78504943847656
20
131.8891716003418
10
296.69471740722656
20
131.82352066040039
10
296.59999847412109
20
131.76434516906738
10
296.50138854980469
20
131.71192169189453
10
296.39938354492188
20
131.66648864746094
10
296.29444122314453
20
131.62830352783203
10
296.18705749511719
20
131.59751892089844
10
296.07784271240234
20
131.57429695129395
10
295.96725463867188
20
131.55875205993652
10
295.85582733154297
20
131.55096054077148
10
289.34413909912109
20
131.55096054077148
10
289.23274993896484
20
131.55875205993652
10
289.12216186523438
20
131.57429695129395
10
289.01294708251953
20
131.59751892089844
10
288.90556335449219
20
131.62830352783203
10
288.80062103271484
20
131.66648864746094
10
288.69861602783203
20
131.71192169189453
10
288.60000610351562
20
131.76434516906738
10
288.50528717041016
20
131.82352066040039
10
288.41495513916016
20
131.8891716003418
10
288.32939147949219
20
131.9609546661377
10
288.24905395507812
20
132.03853607177734
10
288.17432403564453
20
132.12152481079102
10
288.10554504394531
20
132.20952987670898
10
288.04313659667969
20
132.3021125793457
10
287.98728942871094
20
132.39883422851562
10
287.93830871582031
20
132.49920845031738
10
287.89649963378906
20
132.60274887084961
10
287.86197662353516
20
132.70896911621094
10
287.83496856689453
20
132.81732559204102
10
287.81558990478516
20
132.92730331420898
10
287.80387878417969
20
133.03837776184082
10
287.79998779296875
20
133.14998626708984
10
287.80387878417969
20
133.26160430908203
10
287.81558990478516
20
133.3726692199707
10
287.83496856689453
20
133.48264694213867
10
287.86197662353516
20
133.59100341796875
10
287.89649963378906
20
133.69722366333008
10
287.93830871582031
20
133.80077362060547
10
287.98728942871094
20
133.90113830566406
10
288.04313659667969
20
133.99785995483398
10
288.10554504394531
20
134.0904426574707
10
288.17432403564453
20
134.17844772338867
10
288.24905395507812
20
134.26143646240234
10
288.32939147949219
20
134.33901786804199
10
288.41495513916016
20
134.41080093383789
10
288.50528717041016
20
134.4764518737793
10
288.60000610351562
20
134.5356273651123
10
288.69861602783203
20
134.58805084228516
10
288.80062103271484
20
134.63348388671875
10
288.90556335449219
20
134.67167854309082
10
289.01294708251953
20
134.70245361328125
10
289.12216186523438
20
134.72568511962891
10
289.23274993896484
20
134.74122047424316
0
LWPOLYLINE
5
169
100
AcDbEntity
8
0
100
AcDbPolyline
90
90
70
1
43
0.0
10
237.69611358642578
20
96.161603927612305
10
237.70000457763672
20
96.049985885620117
10
237.69611358642578
20
95.938377380371094
10
237.68440246582031
20
95.827312469482422
10
237.66502380371094
20
95.717325210571289
10
237.63801574707031
20
95.608968734741211
10
237.60353088378906
20
95.502758026123047
10
237.56168365478516
20
95.399208068847656
10
237.51274108886719
20
95.298833847045898
10
237.45689392089844
20
95.202121734619141
10
237.39444732666016
20
95.109529495239258
10
237.32566833496094
20
95.021524429321289
10
237.25093841552734
20
94.938535690307617
10
237.17063903808594
20
94.860954284667969
10
237.08503723144531
20
94.78917121887207
10
236.99470520019531
20
94.723529815673828
10
236.89998626708984
20
94.664344787597656
10
236.80137634277344
20
94.611921310424805
10
236.69937133789062
20
94.566488265991211
10
236.59442901611328
20
94.528303146362305
10
236.48704528808594
20
94.497518539428711
10
236.37783050537109
20
94.474296569824219
10
236.26724243164062
20
94.458751678466797
10
236.15585327148438
20
94.450960159301758
10
229.6441650390625
20
94.450960159301758
10
229.53273773193359
20
94.458751678466797
10
229.42214965820312
20
94.474296569824219
10
229.31293487548828
20
94.497518539428711
10
229.20555114746094
20
94.528303146362305
10
229.10060882568359
20
94.566488265991211
10
228.99860382080078
20
94.611921310424805
10
228.89999389648438
20
94.664344787597656
10
228.80531311035156
20
94.723529815673828
10
228.71494293212891
20
94.78917121887207
10
228.62937927246094
20
94.860954284667969
10
228.54907989501953
20
94.938535690307617
10
228.47434997558594
20
95.021524429321289
10
228.40557098388672
20
95.109529495239258
10
228.34312438964844
20
95.202121734619141
10
228.28727722167969
20
95.298833847045898
10
228.23833465576172
20
95.399208068847656
10
228.19648742675781
20
95.502758026123047
10
228.16200256347656
20
95.608968734741211
10
228.13495635986328
20
95.717325210571289
10
228.11557769775391
20
95.827312469482422
10
228.10390472412109
20
95.938377380371094
10
228.10001373291016
20
96.049985885620117
10
228.10390472412109
20
96.161603927612305
10
228.11557769775391
20
96.272659301757812
10
228.13495635986328
20
96.382646560668945
10
228.16200256347656
20
96.491003036499023
10
228.19648742675781
20
96.597213745117188
10
228.23833465576172
20
96.700773239135742
10
228.28727722167969
20
96.801137924194336
10
228.34312438964844
20
96.897859573364258
10
228.40557098388672
20
96.990442276000977
10
228.47434997558594
20
97.078447341918945
10
228.54907989501953
20
97.161436080932617
10
228.62937927246094
20
97.239017486572266
10
228.71494293212891
20
97.310810089111328
10
228.80531311035156
20
97.376441955566406
10
228.89999389648438
20
97.435626983642578
10
228.99860382080078
20
97.48805046081543
10
229.10060882568359
20
97.533483505249023
10
229.20555114746094
20
97.571678161621094
10
229.31293487548828
20
97.602453231811523
10
229.42214965820312
20
97.62568473815918
10
229.53273773193359
20
97.641220092773438
10
229.6441650390625
20
97.649011611938477
10
236.15585327148438
20
97.649011611938477
10
236.26724243164062
20
97.641220092773438
10
236.37783050537109
20
97.62568473815918
10
236.48704528808594
20
97.602453231811523
10
236.59442901611328
20
97.571678161621094
10
236.69937133789062
20
97.533483505249023
10
236.80137634277344
20
97.48805046081543
10
236.89998626708984
20
97.435626983642578
10
236.99470520019531
20
97.376441955566406
10
237.08503723144531
20
97.310810089111328
10
237.17063903808594
20
97.239017486572266
10
237.25093841552734
20
97.161436080932617
10
237.32566833496094
20
97.078447341918945
10
237.39444732666016
20
96.990442276000977
10
237.45689392089844
20
96.897859573364258
10
237.51274108886719
20
96.801137924194336
10
237.56168365478516
20
96.700773239135742
10
237.60353088378906
20
96.597213745117188
10
237.63801574707031
20
96.491003036499023
10
237.66502380371094
20
96.382646560668945
10
237.68440246582031
20
96.272659301757812
0
LWPOLYLINE
5
170
100
AcDbEntity
8
0
100
AcDbPolyline
90
90
70
1
43
0.0
10
187.41292953491211
20
134.70245361328125
10
187.52214431762695
20
134.72568511962891
10
187.63275146484375
20
134.74122047424316
10
187.74415969848633
20
134.7490119934082
10
194.25582885742188
20
134.7490119934082
10
194.36723709106445
20
134.74122047424316
10
194.47784423828125
20
134.72568511962891
10
194.58705902099609
20
134.70245361328125
10
194.69442367553711
20
134.67167854309082
10
194.79936599731445
20
134.63348388671875
10
194.90139007568359
20
134.58805084228516
10
195
20
134.5356273651123
10
195.09469985961914
20
134.4764518737793
10
195.18505096435547
20
134.41080093383789
10
195.27059555053711
20
134.33901786804199
10
195.3509521484375
20
134.26143646240234
10
195.42566299438477
20
134.17844772338867
10
195.49440383911133
20
134.0904426574707
10
195.55686950683594
20
133.99785995483398
10
195.61271667480469
20
133.90113830566406
10
195.66169738769531
20
133.80077362060547
10
195.70350646972656
20
133.69722366333008
10
195.73799133300781
20
133.59100341796875
10
195.76503753662109
20
133.48264694213867
10
195.78441619873047
20
133.3726692199707
10
195.79612731933594
20
133.26160430908203
10
195.79998016357422
20
133.14998626708984
10
195.79612731933594
20
133.03837776184082
10
195.78441619873047
20
132.92730331420898
10
195.76503753662109
20
132.81732559204102
10
195.73799133300781
20
132.70896911621094
10
195.70350646972656
20
132.60274887084961
10
195.66169738769531
20
132.49920845031738
10
195.61271667480469
20
132.39883422851562
10
195.55686950683594
20
132.3021125793457
10
195.49440383911133
20
132.20952987670898
10
195.42566299438477
20
132.12152481079102
10
195.3509521484375
20
132.03853607177734
10
195.27059555053711
20
131.9609546661377
10
195.18505096435547
20
131.8891716003418
10
195.09469985961914
20
131.82352066040039
10
195
20
131.76434516906738
10
194.90139007568359
20
131.71192169189453
10
194.79936599731445
20
131.66648864746094
10
194.69442367553711
20
131.62830352783203
10
194.58705902099609
20
131.59751892089844
10
194.47784423828125
20
131.57429695129395
10
194.36723709106445
20
131.55875205993652
10
194.25582885742188
20
131.55096054077148
10
187.74415969848633
20
131.55096054077148
10
187.63275146484375
20
131.55875205993652
10
187.52214431762695
20
131.57429695129395
10
187.41292953491211
20
131.59751892089844
10
187.30556488037109
20
131.62830352783203
10
187.20062255859375
20
131.66648864746094
10
187.09859848022461
20
131.71192169189453
10
186.9999885559082
20
131.76434516906738
10
186.90530776977539
20
131.82352066040039
10
186.81493759155273
20
131.8891716003418
10
186.72939300537109
20
131.9609546661377
10
186.6490364074707
20
132.03853607177734
10
186.57434463500977
20
132.12152481079102
10
186.50558471679688
20
132.20952987670898
10
186.44311904907227
20
132.3021125793457
10
186.38729095458984
20
132.39883422851562
10
186.33831024169922
20
132.49920845031738
10
186.29648208618164
20
132.60274887084961
10
186.26199722290039
20
132.70896911621094
10
186.23495101928711
20
132.81732559204102
10
186.21557235717773
20
132.92730331420898
10
186.20388031005859
20
133.03837776184082
10
186.20000839233398
20
133.14998626708984
10
186.20388031005859
20
133.26160430908203
10
186.21557235717773
20
133.3726692199707
10
186.23495101928711
20
133.48264694213867
10
186.26199722290039
20
133.59100341796875
10
186.29648208618164
20
133.69722366333008
10
186.33831024169922
20
133.80077362060547
10
186.38729095458984
20
133.90113830566406
10
186.44311904907227
20
133.99785995483398
10
186.50558471679688
20
134.0904426574707
10
186.57434463500977
20
134.17844772338867
10
186.6490364074707
20
134.26143646240234
10
186.72939300537109
20
134.33901786804199
10
186.81493759155273
20
134.41080093383789
10
186.90530776977539
20
134.4764518737793
10
186.9999885559082
20
134.5356273651123
10
187.09859848022461
20
134.58805084228516
10
187.20062255859375
20
134.63348388671875
10
187.30556488037109
20
134.67167854309082
0
LWPOLYLINE
5
171
100
AcDbEntity
8
0
100
AcDbPolyline
90
90
70
1
43
0.0
10
287.79998779296875
20
96.049985885620117
10
287.80387878417969
20
96.161603927612305
10
287.81558990478516
20
96.272659301757812
10
287.83496856689453
20
96.382646560668945
10
287.86197662353516
20
96.491003036499023
10
287.89649963378906
20
96.597213745117188
10
287.93830871582031
20
96.700773239135742
10
287.98728942871094
20
96.801137924194336
10
288.04313659667969
20
96.897859573364258
10
288.10554504394531
20
96.990442276000977
10
288.17432403564453
20
97.078447341918945
10
288.24905395507812
20
97.161436080932617
10
288.32939147949219
20
97.239017486572266
10
288.41495513916016
20
97.310810089111328
10
288.50528717041016
20
97.376441955566406
10
288.60000610351562
20
97.435626983642578
10
288.69861602783203
20
97.48805046081543
10
288.80062103271484
20
97.533483505249023
10
288.90556335449219
20
97.571678161621094
10
289.01294708251953
20
97.602453231811523
10
289.12216186523438
20
97.62568473815918
10
289.23274993896484
20
97.641220092773438
10
289.34413909912109
20
97.649011611938477
10
295.85582733154297
20
97.649011611938477
10
295.96725463867188
20
97.641220092773438
10
296.07784271240234
20
97.62568473815918
10
296.18705749511719
20
97.602453231811523
10
296.29444122314453
20
97.571678161621094
10
296.39938354492188
20
97.533483505249023
10
296.50138854980469
20
97.48805046081543
10
296.59999847412109
20
97.435626983642578
10
296.69471740722656
20
97.376441955566406
10
296.78504943847656
20
97.310810089111328
10
296.87061309814453
20
97.239017486572266
10
296.95095062255859
20
97.161436080932617
10
297.02568054199219
20
97.078447341918945
10
297.09442138671875
20
96.990442276000977
10
297.15690612792969
20
96.897859573364258
10
297.21271514892578
20
96.801137924194336
10
297.26165771484375
20
96.700773239135742
10
297.30350494384766
20
96.597213745117188
10
297.33802795410156
20
96.491003036499023
10
297.36503601074219
20
96.382646560668945
10
297.38441467285156
20
96.272659301757812
10
297.39612579345703
20
96.161603927612305
10
297.39997863769531
20
96.049985885620117
10
297.39612579345703
20
95.938377380371094
10
297.38441467285156
20
95.827312469482422
10
297.36503601074219
20
95.717325210571289
10
297.33802795410156
20
95.608968734741211
10
297.30350494384766
20
95.502758026123047
10
297.26165771484375
20
95.399208068847656
10
297.21271514892578
20
95.298833847045898
10
297.15690612792969
20
95.202121734619141
10
297.09442138671875
20
95.109529495239258
10
297.02568054199219
20
95.021524429321289
10
296.95095062255859
20
94.938535690307617
10
296.87061309814453
20
94.860954284667969
10
296.78504943847656
20
94.78917121887207
10
296.69471740722656
20
94.723529815673828
10
296.59999847412109
20
94.664344787597656
10
296.50138854980469
20
94.611921310424805
10
296.39938354492188
20
94.566488265991211
10
296.29444122314453
20
94.528303146362305
10
296.18705749511719
20
94.497518539428711
10
296.07784271240234
20
94.474296569824219
10
295.96725463867188
20
94.458751678466797
10
295.85582733154297
20
94.450960159301758
10
289.34413909912109
20
94.450960159301758
10
289.23274993896484
20
94.458751678466797
10
289.12216186523438
20
94.474296569824219
10
289.01294708251953
20
94.497518539428711
10
288.90556335449219
20
94.528303146362305
10
288.80062103271484
20
94.566488265991211
10
288.69861602783203
20
94.611921310424805
10
288.60000610351562
20
94.664344787597656
10
288.50528717041016
20
94.723529815673828
10
288.41495513916016
20
94.78917121887207
10
288.32939147949219
20
94.860954284667969
10
288.24905395507812
20
94.938535690307617
10
288.17432403564453
20
95.021524429321289
10
288.10554504394531
20
95.109529495239258
10
288.04313659667969
20
95.202121734619141
10
287.98728942871094
20
95.298833847045898
10
287.93830871582031
20
95.399208068847656
10
287.89649963378906
20
95.502758026123047
10
287.86197662353516
20
95.608968734741211
10
287.83496856689453
20
95.717325210571289
10
287.81558990478516
20
95.827312469482422
10
287.80387878417969
20
95.938377380371094
0
LWPOLYLINE
5
172
100
AcDbEntity
8
0
100
AcDbPolyline
90
90
70
1
43
0.0
10
236.15585327148438
20
57.350959777832031
10
236.26724243164062
20
57.35875129699707
10
236.37783050537109
20
57.374296188354492
10
236.48704528808594
20
57.397518157958984
10
236.59442901611328
20
57.428293228149414
10
236.69937133789062
20
57.466497421264648
10
236.80137634277344
20
57.511920928955078
10
236.89998626708984
20
57.56434440612793
10
236.99470520019531
20
57.623529434204102
10
237.08503723144531
20
57.689170837402344
10
237.17063903808594
20
57.760953903198242
10
237.25093841552734
20
57.838535308837891
10
237.32566833496094
20
57.921524047851562
10
237.39444732666016
20
58.009529113769531
10
237.45689392089844
20
58.10211181640625
10
237.51274108886719
20
58.198833465576172
10
237.56168365478516
20
58.29920768737793
10
237.60353088378906
20
58.40275764465332
10
237.63801574707031
20
58.508968353271484
10
237.66502380371094
20
58.617324829101562
10
237.68440246582031
20
58.727312088012695
10
237.69611358642578
20
58.838376998901367
10
237.70000457763672
20
58.949985504150391
10
237.69611358642578
20
59.061594009399414
10
237.68440246582031
20
59.172658920288086
10
237.66502380371094
20
59.282646179199219
10
237.63801574707031
20
59.391012191772461
10
237.60353088378906
20
59.497213363647461
10
237.56168365478516
20
59.600763320922852
10
237.51274108886719
20
59.701147079467773
10
237.45689392089844
20
59.797859191894531
10
237.39444732666016
20
59.89044189453125
10
237.32566833496094
20
59.978446960449219
10
237.25093841552734
20
60.061445236206055
10
237.17063903808594
20
60.139017105102539
10
237.08503723144531
20
60.210800170898438
10
236.99470520019531
20
60.27644157409668
10
236.89998626708984
20
60.335626602172852
10
236.80137634277344
20
60.388059616088867
10
236.69937133789062
20
60.433483123779297
10
236.59442901611328
20
60.471677780151367
10
236.48704528808594
20
60.502462387084961
10
236.37783050537109
20
60.525684356689453
10
236.26724243164062
20
60.541219711303711
10
236.15585327148438
20
60.54901123046875
10
229.6441650390625
20
60.54901123046875
10
229.53273773193359
20
60.541219711303711
10
229.42214965820312
20
60.525684356689453
10
229.31293487548828
20
60.502462387084961
10
229.20555114746094
20
60.471677780151367
10
229.10060882568359
20
60.433483123779297
10
228.99860382080078
20
60.388059616088867
10
228.89999389648438
20
60.335626602172852
10
228.80531311035156
20
60.27644157409668
10
228.71494293212891
20
60.210800170898438
10
228.62937927246094
20
60.139017105102539
10
228.54907989501953
20
60.061445236206055
10
228.47434997558594
20
59.978446960449219
10
228.40557098388672
20
59.89044189453125
10
228.34312438964844
20
59.797859191894531
10
228.28727722167969
20
59.701147079467773
10
228.23833465576172
20
59.600763320922852
10
228.19648742675781
20
59.497213363647461
10
228.16200256347656
20
59.391012191772461
10
228.13495635986328
20
59.282646179199219
10
228.11557769775391
20
59.172658920288086
10
228.10390472412109
20
59.061594009399414
10
228.10001373291016
20
58.949985504150391
10
228.10390472412109
20
58.838376998901367
10
228.11557769775391
20
58.727312088012695
10
228.13495635986328
20
58.617324829101562
10
228.16200256347656
20
58.508968353271484
10
228.19648742675781
20
58.40275764465332
10
228.23833465576172
20
58.29920768737793
10
228.28727722167969
20
58.198833465576172
10
228.34312438964844
20
58.10211181640625
10
228.40557098388672
20
58.009529113769531
10
228.47434997558594
20
57.921524047851562
10
228.54907989501953
20
57.838535308837891
10
228.62937927246094
20
57.760953903198242
10
228.71494293212891
20
57.689170837402344
10
228.80531311035156
20
57.623529434204102
10
228.89999389648438
20
57.56434440612793
10
228.99860382080078
20
57.511920928955078
10
229.10060882568359
20
57.466497421264648
10
229.20555114746094
20
57.428293228149414
10
229.31293487548828
20
57.397518157958984
10
229.42214965820312
20
57.374296188354492
10
229.53273773193359
20
57.35875129699707
10
229.6441650390625
20
57.350959777832031
0
LWPOLYLINE
5
173
100
AcDbEntity
8
0
100
AcDbPolyline
90
90
70
1
43
0.0
10
289.23274993896484
20
57.35875129699707
10
289.34413909912109
20
57.350959777832031
10
295.85582733154297
20
57.350959777832031
10
295.96725463867188
20
57.35875129699707
10
296.07784271240234
20
57.374296188354492
10
296.18705749511719
20
57.397518157958984
10
296.29444122314453
20
57.428293228149414
10
296.39938354492188
20
57.466497421264648
10
296.50138854980469
20
57.511920928955078
10
296.59999847412109
20
57.56434440612793
10
296.69471740722656
20
57.623529434204102
10
296.78504943847656
20
57.689170837402344
10
296.87061309814453
20
57.760953903198242
10
296.95095062255859
20
57.838535308837891
10
297.02568054199219
20
57.921524047851562
10
297.09442138671875
20
58.009529113769531
10
297.15690612792969
20
58.10211181640625
10
297.21271514892578
20
58.198833465576172
10
297.26165771484375
20
58.29920768737793
10
297.30350494384766
20
58.40275764465332
10
297.33802795410156
20
58.508968353271484
10
297.36503601074219
20
58.617324829101562
10
297.38441467285156
20
58.727312088012695
10
297.39612579345703
20
58.838376998901367
10
297.39997863769531
20
58.949985504150391
10
297.39612579345703
20
59.061594009399414
10
297.38441467285156
20
59.172658920288086
10
297.36503601074219
20
59.282646179199219
10
297.33802795410156
20
59.391012191772461
10
297.30350494384766
20
59.497213363647461
10
297.26165771484375
20
59.600763320922852
10
297.21271514892578
20
59.701147079467773
10
297.15690612792969
20
59.797859191894531
10
297.09442138671875
20
59.89044189453125
10
297.02568054199219
20
59.978446960449219
10
296.95095062255859
20
60.061445236206055
10
296.87061309814453
20
60.139017105102539
10
296.78504943847656
20
60.210800170898438
10
296.69471740722656
20
60.27644157409668
10
296.59999847412109
20
60.335626602172852
10
296.50138854980469
20
60.388059616088867
10
296.39938354492188
20
60.433483123779297
10
296.29444122314453
20
60.471677780151367
10
296.18705749511719
20
60.502462387084961
10
296.07784271240234
20
60.525684356689453
10
295.96725463867188
20
60.541219711303711
10
295.85582733154297
20
60.54901123046875
10
289.34413909912109
20
60.54901123046875
10
289.23274993896484
20
60.541219711303711
10
289.12216186523438
20
60.525684356689453
10
289.01294708251953
20
60.502462387084961
10
288.90556335449219
20
60.471677780151367
10
288.80062103271484
20
60.433483123779297
10
288.69861602783203
20
60.388059616088867
10
288.60000610351562
20
60.335626602172852
10
288.50528717041016
20
60.27644157409668
10
288.41495513916016
20
60.210800170898438
10
288.32939147949219
20
60.139017105102539
10
288.24905395507812
20
60.061445236206055
10
288.17432403564453
20
59.978446960449219
10
288.10554504394531
20
59.89044189453125
10
288.04313659667969
20
59.797859191894531
10
287.98728942871094
20
59.701147079467773
10
287.93830871582031
20
59.600763320922852
10
287.89649963378906
20
59.497213363647461
10
287.86197662353516
20
59.391012191772461
10
287.83496856689453
20
59.282646179199219
10
287.81558990478516
20
59.172658920288086
10
287.80387878417969
20
59.061594009399414
10
287.79998779296875
20
58.949985504150391
10
287.80387878417969
20
58.838376998901367
10
287.81558990478516
20
58.727312088012695
10
287.83496856689453
20
58.617324829101562
10
287.86197662353516
20
58.508968353271484
10
287.89649963378906
20
58.40275764465332
10
287.93830871582031
20
58.29920768737793
10
287.98728942871094
20
58.198833465576172
10
288.04313659667969
20
58.10211181640625
10
288.10554504394531
20
58.009529113769531
10
288.17432403564453
20
57.921524047851562
10
288.24905395507812
20
57.838535308837891
10
288.32939147949219
20
57.760953903198242
10
288.41495513916016
20
57.689170837402344
10
288.50528717041016
20
57.623529434204102
10
288.60000610351562
20
57.56434440612793
10
288.69861602783203
20
57.511920928955078
10
288.80062103271484
20
57.466497421264648
10
288.90556335449219
20
57.428293228149414
10
289.01294708251953
20
57.397518157958984
10
289.12216186523438
20
57.374296188354492
0
LWPOLYLINE
5
174
100
AcDbEntity
8
0
100
AcDbPolyline
90
90
70
1
43
0.0
10
186.20000839233398
20
96.049985885620117
10
186.20388031005859
20
96.161603927612305
10
186.21557235717773
20
96.272659301757812
10
186.23495101928711
20
96.382646560668945
10
186.26199722290039
20
96.491003036499023
10
186.29648208618164
20
96.597213745117188
10
186.33831024169922
20
96.700773239135742
10
186.38729095458984
20
96.801137924194336
10
186.44311904907227
20
96.897859573364258
10
186.50558471679688
20
96.990442276000977
10
186.57434463500977
20
97.078447341918945
10
186.6490364074707
20
97.161436080932617
10
186.72939300537109
20
97.239017486572266
10
186.81493759155273
20
97.310810089111328
10
186.90530776977539
20
97.376441955566406
10
186.9999885559082
20
97.435626983642578
10
187.09859848022461
20
97.48805046081543
10
187.20062255859375
20
97.533483505249023
10
187.30556488037109
20
97.571678161621094
10
187.41292953491211
20
97.602453231811523
10
187.52214431762695
20
97.62568473815918
10
187.63275146484375
20
97.641220092773438
10
187.74415969848633
20
97.649011611938477
10
194.25582885742188
20
97.649011611938477
10
194.36723709106445
20
97.641220092773438
10
194.47784423828125
20
97.62568473815918
10
194.58705902099609
20
97.602453231811523
10
194.69442367553711
20
97.571678161621094
10
194.79936599731445
20
97.533483505249023
10
194.90139007568359
20
97.48805046081543
10
195
20
97.435626983642578
10
195.09469985961914
20
97.376441955566406
10
195.18505096435547
20
97.310810089111328
10
195.27059555053711
20
97.239017486572266
10
195.3509521484375
20
97.161436080932617
10
195.42566299438477
20
97.078447341918945
10
195.49440383911133
20
96.990442276000977
10
195.55686950683594
20
96.897859573364258
10
195.61271667480469
20
96.801137924194336
10
195.66169738769531
20
96.700773239135742
10
195.70350646972656
20
96.597213745117188
10
195.73799133300781
20
96.491003036499023
10
195.76503753662109
20
96.382646560668945
10
195.78441619873047
20
96.272659301757812
10
195.79612731933594
20
96.161603927612305
10
195.79998016357422
20
96.049985885620117
10
195.79612731933594
20
95.938377380371094
10
195.78441619873047
20
95.827312469482422
10
195.76503753662109
20
95.717325210571289
10
195.73799133300781
20
95.608968734741211
10
195.70350646972656
20
95.502758026123047
10
195.66169738769531
20
95.399208068847656
10
195.61271667480469
20
95.298833847045898
10
195.55686950683594
20
95.202121734619141
10
195.49440383911133
20
95.109529495239258
10
195.42566299438477
20
95.021524429321289
10
195.3509521484375
20
94.938535690307617
10
195.27059555053711
20
94.860954284667969
10
195.18505096435547
20
94.78917121887207
10
195.09469985961914
20
94.723529815673828
10
195
20
94.664344787597656
10
194.90139007568359
20
94.611921310424805
10
194.79936599731445
20
94.566488265991211
10
194.69442367553711
20
94.528303146362305
10
194.58705902099609
20
94.497518539428711
10
194.47784423828125
20
94.474296569824219
10
194.36723709106445
20
94.458751678466797
10
194.25582885742188
20
94.450960159301758
10
187.74415969848633
20
94.450960159301758
10
187.63275146484375
20
94.458751678466797
10
187.52214431762695
20
94.474296569824219
10
187.41292953491211
20
94.497518539428711
10
187.30556488037109
20
94.528303146362305
10
187.20062255859375
20
94.566488265991211
10
187.09859848022461
20
94.611921310424805
10
186.9999885559082
20
94.664344787597656
10
186.90530776977539
20
94.723529815673828
10
186.81493759155273
20
94.78917121887207
10
186.72939300537109
20
94.860954284667969
10
186.6490364074707
20
94.938535690307617
10
186.57434463500977
20
95.021524429321289
10
186.50558471679688
20
95.109529495239258
10
186.44311904907227
20
95.202121734619141
10
186.38729095458984
20
95.298833847045898
10
186.33831024169922
20
95.399208068847656
10
186.29648208618164
20
95.502758026123047
10
186.26199722290039
20
95.608968734741211
10
186.23495101928711
20
95.717325210571289
10
186.21557235717773
20
95.827312469482422
10
186.20388031005859
20
95.938377380371094
0
LWPOLYLINE
5
175
100
AcDbEntity
8
0
100
AcDbPolyline
90
90
70
1
43
0.0
10
187.41292953491211
20
57.397518157958984
10
187.52214431762695
20
57.374296188354492
10
187.63275146484375
20
57.35875129699707
10
187.74415969848633
20
57.350959777832031
10
194.25582885742188
20
57.350959777832031
10
194.36723709106445
20
57.35875129699707
10
194.47784423828125
20
57.374296188354492
10
194.58705902099609
20
57.397518157958984
10
194.69442367553711
20
57.428293228149414
10
194.79936599731445
20
57.466497421264648
10
194.90139007568359
20
57.511920928955078
10
195
20
57.56434440612793
10
195.09469985961914
20
57.623529434204102
10
195.18505096435547
20
57.689170837402344
10
195.27059555053711
20
57.760953903198242
10
195.3509521484375
20
57.838535308837891
10
195.42566299438477
20
57.921524047851562
10
195.49440383911133
20
58.009529113769531
10
195.55686950683594
20
58.10211181640625
10
195.61271667480469
20
58.198833465576172
10
195.66169738769531
20
58.29920768737793
10
195.70350646972656
20
58.40275764465332
10
195.73799133300781
20
58.508968353271484
10
195.76503753662109
20
58.617324829101562
10
195.78441619873047
20
58.727312088012695
10
195.79612731933594
20
58.838376998901367
10
195.79998016357422
20
58.949985504150391
10
195.79612731933594
20
59.061594009399414
10
195.78441619873047
20
59.172658920288086
10
195.76503753662109
20
59.282646179199219
10
195.73799133300781
20
59.391012191772461
10
195.70350646972656
20
59.497213363647461
10
195.66169738769531
20
59.600763320922852
10
195.61271667480469
20
59.701147079467773
10
195.55686950683594
20
59.797859191894531
10
195.49440383911133
20
59.89044189453125
10
195.42566299438477
20
59.978446960449219
10
195.3509521484375
20
60.061445236206055
10
195.27059555053711
20
60.139017105102539
10
195.18505096435547
20
60.210800170898438
10
195.09469985961914
20
60.27644157409668
10
195
20
60.335626602172852
10
194.90139007568359
20
60.388059616088867
10
194.79936599731445
20
60.433483123779297
10
194.69442367553711
20
60.471677780151367
10
194.58705902099609
20
60.502462387084961
10
194.47784423828125
20
60.525684356689453
10
194.36723709106445
20
60.541219711303711
10
194.25582885742188
20
60.54901123046875
10
187.74415969848633
20
60.54901123046875
10
187.63275146484375
20
60.541219711303711
10
187.52214431762695
20
60.525684356689453
10
187.41292953491211
20
60.502462387084961
10
187.30556488037109
20
60.471677780151367
10
187.20062255859375
20
60.433483123779297
10
187.09859848022461
20
60.388059616088867
10
186.9999885559082
20
60.335626602172852
10
186.90530776977539
20
60.27644157409668
10
186.81493759155273
20
60.210800170898438
10
186.72939300537109
20
60.139017105102539
10
186.6490364074707
20
60.061445236206055
10
186.57434463500977
20
59.978446960449219
10
186.50558471679688
20
59.89044189453125
10
186.44311904907227
20
59.797859191894531
10
186.38729095458984
20
59.701147079467773
10
186.33831024169922
20
59.600763320922852
10
186.29648208618164
20
59.497213363647461
10
186.26199722290039
20
59.391012191772461
10
186.23495101928711
20
59.282646179199219
10
186.21557235717773
20
59.172658920288086
10
186.20388031005859
20
59.061594009399414
10
186.20000839233398
20
58.949985504150391
10
186.20388031005859
20
58.838376998901367
10
186.21557235717773
20
58.727312088012695
10
186.23495101928711
20
58.617324829101562
10
186.26199722290039
20
58.508968353271484
10
186.29648208618164
20
58.40275764465332
10
186.33831024169922
20
58.29920768737793
10
186.38729095458984
20
58.198833465576172
10
186.44311904907227
20
58.10211181640625
10
186.50558471679688
20
58.009529113769531
10
186.57434463500977
20
57.921524047851562
10
186.6490364074707
20
57.838535308837891
10
186.72939300537109
20
57.760953903198242
10
186.81493759155273
20
57.689170837402344
10
186.90530776977539
20
57.623529434204102
10
186.9999885559082
20
57.56434440612793
10
187.09859848022461
20
57.511920928955078
10
187.20062255859375
20
57.466497421264648
10
187.30556488037109
20
57.428293228149414
0
LWPOLYLINE
5
176
100
AcDbEntity
8
0
100
AcDbPolyline
90
144
70
1
43
0.0
10
-171.26001358032227
20
183.49998474121094
10
-171.26001358032227
20
177.49998092651367
10
-191.510009765625
20
177.49998092651367
10
-191.510009765625
20
179.74998474121094
10
-181.510009765625
20
179.74998474121094
10
-181.510009765625
20
183.49998474121094
10
-285.24002075195312
20
183.49998474121094
10
-285.24002075195312
20
177.49998092651367
10
-305.49001693725586
20
177.49998092651367
10
-305.49001693725586
20
179.74998474121094
10
-295.49001693725586
20
179.74998474121094
10
-295.49001693725586
20
183.49998474121094
10
-316.50001525878906
20
183.49998474121094
10
-316.70928955078125
20
183.49267959594727
10
-316.91751480102539
20
183.47078323364258
10
-317.12373733520508
20
183.43442916870117
10
-317.32690811157227
20
183.38376998901367
10
-317.52607345581055
20
183.31907272338867
10
-317.72022247314453
20
183.24062347412109
10
-317.90842056274414
20
183.14882278442383
10
-318.08977127075195
20
183.04412841796875
10
-318.26335906982422
20
182.92703628540039
10
-318.42836380004883
20
182.79811859130859
10
-318.583984375
20
182.65800476074219
10
-318.72943878173828
20
182.50738143920898
10
-318.86404037475586
20
182.34697341918945
10
-318.98712158203125
20
182.17756271362305
10
-319.09809112548828
20
181.9999885559082
10
-319.19639587402344
20
181.81510925292969
10
-319.28155899047852
20
181.62380218505859
10
-319.35317993164062
20
181.42704010009766
10
-319.41089630126953
20
181.22575759887695
10
-319.45444107055664
20
181.02092742919922
10
-319.48358535766602
20
180.81357955932617
10
-319.49817657470703
20
180.60468673706055
10
-319.49817657470703
20
149.4999885559082
10
-316.7500114440918
20
149.4999885559082
10
-316.7500114440918
20
159.4999885559082
10
-314.50000762939453
20
159.4999885559082
10
-314.50000762939453
20
139.24999237060547
10
-319.49817657470703
20
139.24999237060547
10
-319.49817657470703
20
24.199981689453125
10
-316.7500114440918
20
24.199981689453125
10
-316.7500114440918
20
34.199981689453125
10
-314.50000762939453
20
34.199981689453125
10
-314.50000762939453
20
13.949985504150391
10
-319.49817657470703
20
13.949985504150391
10
-319.49817657470703
20
5.0952911376953125
10
-319.48358535766602
20
4.8863983154296875
10
-319.45444107055664
20
4.6790504455566406
10
-319.41089630126953
20
4.4742202758789062
10
-319.35317993164062
20
4.2729377746582031
10
-319.28155899047852
20
4.0761756896972656
10
-319.19639587402344
20
3.8848686218261719
10
-319.09809112548828
20
3.6999893188476562
10
-318.98712158203125
20
3.5223960876464844
10
-318.86404037475586
20
3.3530044555664062
10
-318.72943878173828
20
3.192596435546875
10
-318.583984375
20
3.0419540405273438
10
-318.42836380004883
20
2.9018592834472656
10
-318.26335906982422
20
2.7729415893554688
10
-318.08977127075195
20
2.6558303833007812
10
-317.90842056274414
20
2.5511550903320312
10
-317.72022247314453
20
2.4593544006347656
10
-317.52607345581055
20
2.3809051513671875
10
-317.32690811157227
20
2.3162078857421875
10
-317.12373733520508
20
2.2655487060546875
10
-316.91751480102539
20
2.2291946411132812
10
-316.70928955078125
20
2.2072982788085938
10
-316.50001525878906
20
2.1999740600585938
10
-295.49001693725586
20
2.1999740600585938
10
-295.49001693725586
20
5.9499740600585938
10
-305.49001693725586
20
5.9499740600585938
10
-305.49001693725586
20
8.1999778747558594
10
-285.24002075195312
20
8.1999778747558594
10
-285.24002075195312
20
2.1999740600585938
10
-181.510009765625
20
2.1999740600585938
10
-181.510009765625
20
5.9499740600585938
10
-191.510009765625
20
5.9499740600585938
10
-191.510009765625
20
8.1999778747558594
10
-171.26001358032227
20
8.1999778747558594
10
-171.26001358032227
20
2.1999740600585938
10
-140.5000114440918
20
2.1999740600585938
10
-140.29073715209961
20
2.2072982788085938
10
-140.08249282836914
20
2.2291946411132812
10
-139.87627029418945
20
2.2655487060546875
10
-139.67309951782227
20
2.3162078857421875
10
-139.47394371032715
20
2.3809051513671875
10
-139.27979469299316
20
2.4593544006347656
10
-139.09159660339355
20
2.5511550903320312
10
-138.91025543212891
20
2.6558303833007812
10
-138.73664855957031
20
2.7729415893554688
10
-138.5716438293457
20
2.9018592834472656
10
-138.4160327911377
20
3.0419540405273438
10
-138.27056884765625
20
3.192596435546875
10
-138.13597679138184
20
3.3530044555664062
10
-138.01289558410645
20
3.5223960876464844
10
-137.90193557739258
20
3.6999893188476562
10
-137.80363082885742
20
3.8848686218261719
10
-137.71845817565918
20
4.0761756896972656
10
-137.64683723449707
20
4.2729377746582031
10
-137.58912086486816
20
4.4742202758789062
10
-137.54558563232422
20
4.6790504455566406
10
-137.51644134521484
20
4.8863983154296875
10
-137.5018310546875
20
5.0952911376953125
10
-137.5018310546875
20
13.949985504150391
10
-142.760009765625
20
13.949985504150391
10
-142.760009765625
20
24.199981689453125
10
-142.5100040435791
20
24.199981689453125
10
-142.5100040435791
20
34.199981689453125
10
-140.260009765625
20
34.199981689453125
10
-140.260009765625
20
24.199981689453125
10
-137.5018310546875
20
24.199981689453125
10
-137.5018310546875
20
139.24999237060547
10
-142.7500057220459
20
139.24999237060547
10
-142.7500057220459
20
149.4999885559082
10
-142.5100040435791
20
149.4999885559082
10
-142.5100040435791
20
159.4999885559082
10
-140.260009765625
20
159.4999885559082
10
-140.260009765625
20
149.4999885559082
10
-137.5018310546875
20
149.4999885559082
10
-137.5018310546875
20
180.60468673706055
10
-137.51644134521484
20
180.81357955932617
10
-137.54558563232422
20
181.02092742919922
10
-137.58912086486816
20
181.22575759887695
10
-137.64683723449707
20
181.42704010009766
10
-137.71845817565918
20
181.62380218505859
10
-137.80363082885742
20
181.81510925292969
10
-137.90193557739258
20
181.9999885559082
10
-138.01289558410645
20
182.17756271362305
10
-138.13597679138184
20
182.34697341918945
10
-138.27056884765625
20
182.50738143920898
10
-138.4160327911377
20
182.65800476074219
10
-138.5716438293457
20
182.79811859130859
10
-138.73664855957031
20
182.92703628540039
10
-138.91025543212891
20
183.04412841796875
10
-139.09159660339355
20
183.14882278442383
10
-139.27979469299316
20
183.24062347412109
10
-139.47394371032715
20
183.31907272338867
10
-139.67309951782227
20
183.38376998901367
10
-139.87627029418945
20
183.43442916870117
10
-140.08249282836914
20
183.47078323364258
10
-140.29073715209961
20
183.49267959594727
10
-140.5000114440918
20
183.49998474121094
0
LWPOLYLINE
5
177
100
AcDbEntity
8
0
100
AcDbPolyline
90
90
70
1
43
0.0
10
-187.41292953491211
20
134.70245361328125
10
-187.30558395385742
20
134.67167854309082
10
-187.20064163208008
20
134.63348388671875
10
-187.09861755371094
20
134.58805084228516
10
-187.00000762939453
20
134.5356273651123
10
-186.90530776977539
20
134.4764518737793
10
-186.81495666503906
20
134.41080093383789
10
-186.72939300537109
20
134.33901786804199
10
-186.64905548095703
20
134.26143646240234
10
-186.57434463500977
20
134.17844772338867
10
-186.50558471679688
20
134.0904426574707
10
-186.44313812255859
20
133.99785995483398
10
-186.38729095458984
20
133.90113830566406
10
-186.33832931518555
20
133.80077362060547
10
-186.29650115966797
20
133.69722366333008
10
-186.26199722290039
20
133.59100341796875
10
-186.23497009277344
20
133.48264694213867
10
-186.21559143066406
20
133.3726692199707
10
-186.20391845703125
20
133.26160430908203
10
-186.20000839233398
20
133.14998626708984
10
-186.20391845703125
20
133.03837776184082
10
-186.21559143066406
20
132.92730331420898
10
-186.23497009277344
20
132.81732559204102
10
-186.26199722290039
20
132.70896911621094
10
-186.29650115966797
20
132.60274887084961
10
-186.33832931518555
20
132.49920845031738
10
-186.38729095458984
20
132.39883422851562
10
-186.44313812255859
20
132.3021125793457
10
-186.50558471679688
20
132.20952987670898
10
-186.57434463500977
20
132.12152481079102
10
-186.64905548095703
20
132.03853607177734
10
-186.72939300537109
20
131.9609546661377
10
-186.81495666503906
20
131.8891716003418
10
-186.90530776977539
20
131.82352066040039
10
-187.00000762939453
20
131.76434516906738
10
-187.09861755371094
20
131.71192169189453
10
-187.20064163208008
20
131.66648864746094
10
-187.30558395385742
20
131.62830352783203
10
-187.41292953491211
20
131.59751892089844
10
-187.52216339111328
20
131.57429695129395
10
-187.63277053833008
20
131.55875205993652
10
-187.74417877197266
20
131.55096054077148
10
-194.2558479309082
20
131.55096054077148
10
-194.36725616455078
20
131.55875205993652
10
-194.47784423828125
20
131.57429695129395
10
-194.58707809448242
20
131.59751892089844
10
-194.69444274902344
20
131.62830352783203
10
-194.79938507080078
20
131.66648864746094
10
-194.90140914916992
20
131.71192169189453
10
-195
20
131.76434516906738
10
-195.09471893310547
20
131.82352066040039
10
-195.1850700378418
20
131.8891716003418
10
-195.27061462402344
20
131.9609546661377
10
-195.3509521484375
20
132.03853607177734
10
-195.42568206787109
20
132.12152481079102
10
-195.49444198608398
20
132.20952987670898
10
-195.55688858032227
20
132.3021125793457
10
-195.61271667480469
20
132.39883422851562
10
-195.66167831420898
20
132.49920845031738
10
-195.70350646972656
20
132.60274887084961
10
-195.73802947998047
20
132.70896911621094
10
-195.76503753662109
20
132.81732559204102
10
-195.7844352722168
20
132.92730331420898
10
-195.79610824584961
20
133.03837776184082
10
-195.80001831054688
20
133.14998626708984
10
-195.79610824584961
20
133.26160430908203
10
-195.7844352722168
20
133.3726692199707
10
-195.76503753662109
20
133.48264694213867
10
-195.73802947998047
20
133.59100341796875
10
-195.70350646972656
20
133.69722366333008
10
-195.66167831420898
20
133.80077362060547
10
-195.61271667480469
20
133.90113830566406
10
-195.55688858032227
20
133.99785995483398
10
-195.49444198608398
20
134.0904426574707
10
-195.42568206787109
20
134.17844772338867
10
-195.3509521484375
20
134.26143646240234
10
-195.27061462402344
20
134.33901786804199
10
-195.1850700378418
20
134.41080093383789
10
-195.09471893310547
20
134.4764518737793
10
-195
20
134.5356273651123
10
-194.90140914916992
20
134.58805084228516
10
-194.79938507080078
20
134.63348388671875
10
-194.69444274902344
20
134.67167854309082
10
-194.58707809448242
20
134.70245361328125
10
-194.47784423828125
20
134.72568511962891
10
-194.36725616455078
20
134.74122047424316
10
-194.2558479309082
20
134.7490119934082
10
-187.74417877197266
20
134.7490119934082
10
-187.63277053833008
20
134.74122047424316
10
-187.52216339111328
20
134.72568511962891
0
LWPOLYLINE
5
178
100
AcDbEntity
8
0
100
AcDbPolyline
90
90
70
1
43
0.0
10
-236.15585327148438
20
134.7490119934082
10
-229.6441650390625
20
134.7490119934082
10
-229.53277587890625
20
134.74122047424316
10
-229.42218780517578
20
134.72568511962891
10
-229.31293487548828
20
134.70245361328125
10
-229.20558929443359
20
134.67167854309082
10
-229.10064697265625
20
134.63348388671875
10
-228.99860382080078
20
134.58805084228516
10
-228.9000129699707
20
134.5356273651123
10
-228.80531311035156
20
134.4764518737793
10
-228.71494293212891
20
134.41080093383789
10
-228.62941741943359
20
134.33901786804199
10
-228.54907989501953
20
134.26143646240234
10
-228.47434997558594
20
134.17844772338867
10
-228.40557098388672
20
134.0904426574707
10
-228.34312438964844
20
133.99785995483398
10
-228.28729629516602
20
133.90113830566406
10
-228.23833465576172
20
133.80077362060547
10
-228.19650650024414
20
133.69722366333008
10
-228.16200256347656
20
133.59100341796875
10
-228.13497543334961
20
133.48264694213867
10
-228.11557769775391
20
133.3726692199707
10
-228.10390472412109
20
133.26160430908203
10
-228.10001373291016
20
133.14998626708984
10
-228.10390472412109
20
133.03837776184082
10
-228.11557769775391
20
132.92730331420898
10
-228.13497543334961
20
132.81732559204102
10
-228.16200256347656
20
132.70896911621094
10
-228.19650650024414
20
132.60274887084961
10
-228.23833465576172
20
132.49920845031738
10
-228.28729629516602
20
132.39883422851562
10
-228.34312438964844
20
132.3021125793457
10
-228.40557098388672
20
132.20952987670898
10
-228.47434997558594
20
132.12152481079102
10
-228.54907989501953
20
132.03853607177734
10
-228.62941741943359
20
131.9609546661377
10
-228.71494293212891
20
131.8891716003418
10
-228.80531311035156
20
131.82352066040039
10
-228.9000129699707
20
131.76434516906738
10
-228.99860382080078
20
131.71192169189453
10
-229.10064697265625
20
131.66648864746094
10
-229.20558929443359
20
131.62830352783203
10
-229.31293487548828
20
131.59751892089844
10
-229.42218780517578
20
131.57429695129395
10
-229.53277587890625
20
131.55875205993652
10
-229.6441650390625
20
131.55096054077148
10
-236.15585327148438
20
131.55096054077148
10
-236.26724243164062
20
131.55875205993652
10
-236.37784957885742
20
131.57429695129395
10
-236.48708343505859
20
131.59751892089844
10
-236.59442901611328
20
131.62830352783203
10
-236.69937133789062
20
131.66648864746094
10
-236.80141448974609
20
131.71192169189453
10
-236.9000244140625
20
131.76434516906738
10
-236.99470520019531
20
131.82352066040039
10
-237.08507537841797
20
131.8891716003418
10
-237.17061996459961
20
131.9609546661377
10
-237.25095748901367
20
132.03853607177734
10
-237.32566833496094
20
132.12152481079102
10
-237.39444732666016
20
132.20952987670898
10
-237.45689392089844
20
132.3021125793457
10
-237.51274108886719
20
132.39883422851562
10
-237.56168365478516
20
132.49920845031738
10
-237.60353088378906
20
132.60274887084961
10
-237.63801574707031
20
132.70896911621094
10
-237.66506195068359
20
132.81732559204102
10
-237.68444061279297
20
132.92730331420898
10
-237.69611358642578
20
133.03837776184082
10
-237.70000457763672
20
133.14998626708984
10
-237.69611358642578
20
133.26160430908203
10
-237.68444061279297
20
133.3726692199707
10
-237.66506195068359
20
133.48264694213867
10
-237.63801574707031
20
133.59100341796875
10
-237.60353088378906
20
133.69722366333008
10
-237.56168365478516
20
133.80077362060547
10
-237.51274108886719
20
133.90113830566406
10
-237.45689392089844
20
133.99785995483398
10
-237.39444732666016
20
134.0904426574707
10
-237.32566833496094
20
134.17844772338867
10
-237.25095748901367
20
134.26143646240234
10
-237.17061996459961
20
134.33901786804199
10
-237.08507537841797
20
134.41080093383789
10
-236.99470520019531
20
134.4764518737793
10
-236.9000244140625
20
134.5356273651123
10
-236.80141448974609
20
134.58805084228516
10
-236.69937133789062
20
134.63348388671875
10
-236.59442901611328
20
134.67167854309082
10
-236.48708343505859
20
134.70245361328125
10
-236.37784957885742
20
134.72568511962891
10
-236.26724243164062
20
134.74122047424316
0
LWPOLYLINE
5
179
100
AcDbEntity
8
0
100
AcDbPolyline
90
90
70
1
43
0.0
10
-186.20391845703125
20
96.161603927612305
10
-186.20000839233398
20
96.049985885620117
10
-186.20391845703125
20
95.938377380371094
10
-186.21559143066406
20
95.827312469482422
10
-186.23497009277344
20
95.717325210571289
10
-186.26199722290039
20
95.608968734741211
10
-186.29650115966797
20
95.502758026123047
10
-186.33832931518555
20
95.399208068847656
10
-186.38729095458984
20
95.298833847045898
10
-186.44313812255859
20
95.202121734619141
10
-186.50558471679688
20
95.109529495239258
10
-186.57434463500977
20
95.021524429321289
10
-186.64905548095703
20
94.938535690307617
10
-186.72939300537109
20
94.860954284667969
10
-186.81495666503906
20
94.78917121887207
10
-186.90530776977539
20
94.723529815673828
10
-187.00000762939453
20
94.664344787597656
10
-187.09861755371094
20
94.611921310424805
10
-187.20064163208008
20
94.566488265991211
10
-187.30558395385742
20
94.528303146362305
10
-187.41292953491211
20
94.497518539428711
10
-187.52216339111328
20
94.474296569824219
10
-187.63277053833008
20
94.458751678466797
10
-187.74417877197266
20
94.450960159301758
10
-194.2558479309082
20
94.450960159301758
10
-194.36725616455078
20
94.458751678466797
10
-194.47784423828125
20
94.474296569824219
10
-194.58707809448242
20
94.497518539428711
10
-194.69444274902344
20
94.528303146362305
10
-194.79938507080078
20
94.566488265991211
10
-194.90140914916992
20
94.611921310424805
10
-195
20
94.664344787597656
10
-195.09471893310547
20
94.723529815673828
10
-195.1850700378418
20
94.78917121887207
10
-195.27061462402344
20
94.860954284667969
10
-195.3509521484375
20
94.938535690307617
10
-195.42568206787109
20
95.021524429321289
10
-195.49444198608398
20
95.109529495239258
10
-195.55688858032227
20
95.202121734619141
10
-195.61271667480469
20
95.298833847045898
10
-195.66167831420898
20
95.399208068847656
10
-195.70350646972656
20
95.502758026123047
10
-195.73802947998047
20
95.608968734741211
10
-195.76503753662109
20
95.717325210571289
10
-195.7844352722168
20
95.827312469482422
10
-195.79610824584961
20
95.938377380371094
10
-195.80001831054688
20
96.049985885620117
10
-195.79610824584961
20
96.161603927612305
10
-195.7844352722168
20
96.272659301757812
10
-195.76503753662109
20
96.382646560668945
10
-195.73802947998047
20
96.491003036499023
10
-195.70350646972656
20
96.597213745117188
10
-195.66167831420898
20
96.700773239135742
10
-195.61271667480469
20
96.801137924194336
10
-195.55688858032227
20
96.897859573364258
10
-195.49444198608398
20
96.990442276000977
10
-195.42568206787109
20
97.078447341918945
10
-195.3509521484375
20
97.161436080932617
10
-195.27061462402344
20
97.239017486572266
10
-195.1850700378418
20
97.310810089111328
10
-195.09471893310547
20
97.376441955566406
10
-195
20
97.435626983642578
10
-194.90140914916992
20
97.48805046081543
10
-194.79938507080078
20
97.533483505249023
10
-194.69444274902344
20
97.571678161621094
10
-194.58707809448242
20
97.602453231811523
10
-194.47784423828125
20
97.62568473815918
10
-194.36725616455078
20
97.641220092773438
10
-194.2558479309082
20
97.649011611938477
10
-187.74417877197266
20
97.649011611938477
10
-187.63277053833008
20
97.641220092773438
10
-187.52216339111328
20
97.62568473815918
10
-187.41292953491211
20
97.602453231811523
10
-187.30558395385742
20
97.571678161621094
10
-187.20064163208008
20
97.533483505249023
10
-187.09861755371094
20
97.48805046081543
10
-187.00000762939453
20
97.435626983642578
10
-186.90530776977539
20
97.376441955566406
10
-186.81495666503906
20
97.310810089111328
10
-186.72939300537109
20
97.239017486572266
10
-186.64905548095703
20
97.161436080932617
10
-186.57434463500977
20
97.078447341918945
10
-186.50558471679688
20
96.990442276000977
10
-186.44313812255859
20
96.897859573364258
10
-186.38729095458984
20
96.801137924194336
10
-186.33832931518555
20
96.700773239135742
10
-186.29650115966797
20
96.597213745117188
10
-186.26199722290039
20
96.491003036499023
10
-186.23497009277344
20
96.382646560668945
10
-186.21559143066406
20
96.272659301757812
0
LWPOLYLINE
5
180
100
AcDbEntity
8
0
100
AcDbPolyline
90
90
70
1
43
0.0
10
-186.20391845703125
20
59.061594009399414
10
-186.20000839233398
20
58.949985504150391
10
-186.20391845703125
20
58.838376998901367
10
-186.21559143066406
20
58.727312088012695
10
-186.23497009277344
20
58.617324829101562
10
-186.26199722290039
20
58.508968353271484
10
-186.29650115966797
20
58.40275764465332
10
-186.33832931518555
20
58.29920768737793
10
-186.38729095458984
20
58.198833465576172
10
-186.44313812255859
20
58.10211181640625
10
-186.50558471679688
20
58.009529113769531
10
-186.57434463500977
20
57.921524047851562
10
-186.64905548095703
20
57.838535308837891
10
-186.72939300537109
20
57.760953903198242
10
-186.81495666503906
20
57.689170837402344
10
-186.90530776977539
20
57.623529434204102
10
-187.00000762939453
20
57.56434440612793
10
-187.09861755371094
20
57.511920928955078
10
-187.20064163208008
20
57.466497421264648
10
-187.30558395385742
20
57.428293228149414
10
-187.41292953491211
20
57.397518157958984
10
-187.52216339111328
20
57.374296188354492
10
-187.63277053833008
20
57.35875129699707
10
-187.74417877197266
20
57.350959777832031
10
-194.2558479309082
20
57.350959777832031
10
-194.36725616455078
20
57.35875129699707
10
-194.47784423828125
20
57.374296188354492
10
-194.58707809448242
20
57.397518157958984
10
-194.69444274902344
20
57.428293228149414
10
-194.79938507080078
20
57.466497421264648
10
-194.90140914916992
20
57.511920928955078
10
-195
20
57.56434440612793
10
-195.09471893310547
20
57.623529434204102
10
-195.1850700378418
20
57.689170837402344
10
-195.27061462402344
20
57.760953903198242
10
-195.3509521484375
20
57.838535308837891
10
-195.42568206787109
20
57.921524047851562
10
-195.49444198608398
20
58.009529113769531
10
-195.55688858032227
20
58.10211181640625
10
-195.61271667480469
20
58.198833465576172
10
-195.66167831420898
20
58.29920768737793
10
-195.70350646972656
20
58.40275764465332
10
-195.73802947998047
20
58.508968353271484
10
-195.76503753662109
20
58.617324829101562
10
-195.7844352722168
20
58.727312088012695
10
-195.79610824584961
20
58.838376998901367
10
-195.80001831054688
20
58.949985504150391
10
-195.79610824584961
20
59.061594009399414
10
-195.7844352722168
20
59.172658920288086
10
-195.76503753662109
20
59.282646179199219
10
-195.73802947998047
20
59.391012191772461
10
-195.70350646972656
20
59.497213363647461
10
-195.66167831420898
20
59.600763320922852
10
-195.61271667480469
20
59.701147079467773
10
-195.55688858032227
20
59.797859191894531
10
-195.49444198608398
20
59.89044189453125
10
-195.42568206787109
20
59.978446960449219
10
-195.3509521484375
20
60.061445236206055
10
-195.27061462402344
20
60.139017105102539
10
-195.1850700378418
20
60.210800170898438
10
-195.09471893310547
20
60.27644157409668
10
-195
20
60.335626602172852
10
-194.90140914916992
20
60.388059616088867
10
-194.79938507080078
20
60.433483123779297
10
-194.69444274902344
20
60.471677780151367
10
-194.58707809448242
20
60.502462387084961
10
-194.47784423828125
20
60.525684356689453
10
-194.36725616455078
20
60.541219711303711
10
-194.2558479309082
20
60.54901123046875
10
-187.74417877197266
20
60.54901123046875
10
-187.63277053833008
20
60.541219711303711
10
-187.52216339111328
20
60.525684356689453
10
-187.41292953491211
20
60.502462387084961
10
-187.30558395385742
20
60.471677780151367
10
-187.20064163208008
20
60.433483123779297
10
-187.09861755371094
20
60.388059616088867
10
-187.00000762939453
20
60.335626602172852
10
-186.90530776977539
20
60.27644157409668
10
-186.81495666503906
20
60.210800170898438
10
-186.72939300537109
20
60.139017105102539
10
-186.64905548095703
20
60.061445236206055
10
-186.57434463500977
20
59.978446960449219
10
-186.50558471679688
20
59.89044189453125
10
-186.44313812255859
20
59.797859191894531
10
-186.38729095458984
20
59.701147079467773
10
-186.33832931518555
20
59.600763320922852
10
-186.29650115966797
20
59.497213363647461
10
-186.26199722290039
20
59.391012191772461
10
-186.23497009277344
20
59.282646179199219
10
-186.21559143066406
20
59.172658920288086
0
LWPOLYLINE
5
181
100
AcDbEntity
8
0
100
AcDbPolyline
90
4
70
1
43
0.0
10
-165.70001602172852
20
28.949985504150391
10
-165.70001602172852
20
26.449985504150391
10
-179.90001678466797
20
26.449985504150391
10
-179.90001678466797
20
28.949985504150391
0
LWPOLYLINE
5
182
100
AcDbEntity
8
0
100
AcDbPolyline
90
90
70
1
43
0.0
10
-295.8558464050293
20
134.7490119934082
10
-289.34417724609375
20
134.7490119934082
10
-289.23276901245117
20
134.74122047424316
10
-289.1221809387207
20
134.72568511962891
10
-289.0129280090332
20
134.70245361328125
10
-288.90558242797852
20
134.67167854309082
10
-288.80064010620117
20
134.63348388671875
10
-288.69861602783203
20
134.58805084228516
10
-288.60002517700195
20
134.5356273651123
10
-288.50530624389648
20
134.4764518737793
10
-288.41495513916016
20
134.41080093383789
10
-288.32941055297852
20
134.33901786804199
10
-288.24907302856445
20
134.26143646240234
10
-288.17434310913086
20
134.17844772338867
10
-288.10558319091797
20
134.0904426574707
10
-288.04313659667969
20
133.99785995483398
10
-287.98730850219727
20
133.90113830566406
10
-287.93832778930664
20
133.80077362060547
10
-287.89649963378906
20
133.69722366333008
10
-287.86199569702148
20
133.59100341796875
10
-287.83496856689453
20
133.48264694213867
10
-287.81557083129883
20
133.3726692199707
10
-287.80389785766602
20
133.26160430908203
10
-287.80000686645508
20
133.14998626708984
10
-287.80389785766602
20
133.03837776184082
10
-287.81557083129883
20
132.92730331420898
10
-287.83496856689453
20
132.81732559204102
10
-287.86199569702148
20
132.70896911621094
10
-287.89649963378906
20
132.60274887084961
10
-287.93832778930664
20
132.49920845031738
10
-287.98730850219727
20
132.39883422851562
10
-288.04313659667969
20
132.3021125793457
10
-288.10558319091797
20
132.20952987670898
10
-288.17434310913086
20
132.12152481079102
10
-288.24907302856445
20
132.03853607177734
10
-288.32941055297852
20
131.9609546661377
10
-288.41495513916016
20
131.8891716003418
10
-288.50530624389648
20
131.82352066040039
10
-288.60002517700195
20
131.76434516906738
10
-288.69861602783203
20
131.71192169189453
10
-288.80064010620117
20
131.66648864746094
10
-288.90558242797852
20
131.62830352783203
10
-289.0129280090332
20
131.59751892089844
10
-289.1221809387207
20
131.57429695129395
10
-289.23276901245117
20
131.55875205993652
10
-289.34417724609375
20
131.55096054077148
10
-295.8558464050293
20
131.55096054077148
10
-295.96725463867188
20
131.55875205993652
10
-296.07784271240234
20
131.57429695129395
10
-296.18707656860352
20
131.59751892089844
10
-296.29444122314453
20
131.62830352783203
10
-296.39938354492188
20
131.66648864746094
10
-296.50140762329102
20
131.71192169189453
10
-296.60001754760742
20
131.76434516906738
10
-296.69471740722656
20
131.82352066040039
10
-296.78506851196289
20
131.8891716003418
10
-296.87061309814453
20
131.9609546661377
10
-296.95095062255859
20
132.03853607177734
10
-297.02568054199219
20
132.12152481079102
10
-297.09444046020508
20
132.20952987670898
10
-297.15688705444336
20
132.3021125793457
10
-297.21273422241211
20
132.39883422851562
10
-297.26167678833008
20
132.49920845031738
10
-297.30352401733398
20
132.60274887084961
10
-297.33802795410156
20
132.70896911621094
10
-297.36505508422852
20
132.81732559204102
10
-297.38443374633789
20
132.92730331420898
10
-297.3961067199707
20
133.03837776184082
10
-297.39999771118164
20
133.14998626708984
10
-297.3961067199707
20
133.26160430908203
10
-297.38443374633789
20
133.3726692199707
10
-297.36505508422852
20
133.48264694213867
10
-297.33802795410156
20
133.59100341796875
10
-297.30352401733398
20
133.69722366333008
10
-297.26167678833008
20
133.80077362060547
10
-297.21273422241211
20
133.90113830566406
10
-297.15688705444336
20
133.99785995483398
10
-297.09444046020508
20
134.0904426574707
10
-297.02568054199219
20
134.17844772338867
10
-296.95095062255859
20
134.26143646240234
10
-296.87061309814453
20
134.33901786804199
10
-296.78506851196289
20
134.41080093383789
10
-296.69471740722656
20
134.4764518737793
10
-296.60001754760742
20
134.5356273651123
10
-296.50140762329102
20
134.58805084228516
10
-296.39938354492188
20
134.63348388671875
10
-296.29444122314453
20
134.67167854309082
10
-296.18707656860352
20
134.70245361328125
10
-296.07784271240234
20
134.72568511962891
10
-295.96725463867188
20
134.74122047424316
0
LWPOLYLINE
5
183
100
AcDbEntity
8
0
100
AcDbPolyline
90
90
70
1
43
0.0
10
-297.39999771118164
20
96.049985885620117
10
-297.3961067199707
20
96.161603927612305
10
-297.38443374633789
20
96.272659301757812
10
-297.36505508422852
20
96.382646560668945
10
-297.33802795410156
20
96.491003036499023
10
-297.30352401733398
20
96.597213745117188
10
-297.26167678833008
20
96.700773239135742
10
-297.21273422241211
20
96.801137924194336
10
-297.15688705444336
20
96.897859573364258
10
-297.09444046020508
20
96.990442276000977
10
-297.02568054199219
20
97.078447341918945
10
-296.95095062255859
20
97.161436080932617
10
-296.87061309814453
20
97.239017486572266
10
-296.78506851196289
20
97.310810089111328
10
-296.69471740722656
20
97.376441955566406
10
-296.60001754760742
20
97.435626983642578
10
-296.50140762329102
20
97.48805046081543
10
-296.39938354492188
20
97.533483505249023
10
-296.29444122314453
20
97.571678161621094
10
-296.18707656860352
20
97.602453231811523
10
-296.07784271240234
20
97.62568473815918
10
-295.96725463867188
20
97.641220092773438
10
-295.8558464050293
20
97.649011611938477
10
-289.34417724609375
20
97.649011611938477
10
-289.23276901245117
20
97.641220092773438
10
-289.1221809387207
20
97.62568473815918
10
-289.0129280090332
20
97.602453231811523
10
-288.90558242797852
20
97.571678161621094
10
-288.80064010620117
20
97.533483505249023
10
-288.69861602783203
20
97.48805046081543
10
-288.60002517700195
20
97.435626983642578
10
-288.50530624389648
20
97.376441955566406
10
-288.41495513916016
20
97.310810089111328
10
-288.32941055297852
20
97.239017486572266
10
-288.24907302856445
20
97.161436080932617
10
-288.17434310913086
20
97.078447341918945
10
-288.10558319091797
20
96.990442276000977
10
-288.04313659667969
20
96.897859573364258
10
-287.98730850219727
20
96.801137924194336
10
-287.93832778930664
20
96.700773239135742
10
-287.89649963378906
20
96.597213745117188
10
-287.86199569702148
20
96.491003036499023
10
-287.83496856689453
20
96.382646560668945
10
-287.81557083129883
20
96.272659301757812
10
-287.80389785766602
20
96.161603927612305
10
-287.80000686645508
20
96.049985885620117
10
-287.80389785766602
20
95.938377380371094
10
-287.81557083129883
20
95.827312469482422
10
-287.83496856689453
20
95.717325210571289
10
-287.86199569702148
20
95.608968734741211
10
-287.89649963378906
20
95.502758026123047
10
-287.93832778930664
20
95.399208068847656
10
-287.98730850219727
20
95.298833847045898
10
-288.04313659667969
20
95.202121734619141
10
-288.10558319091797
20
95.109529495239258
10
-288.17434310913086
20
95.021524429321289
10
-288.24907302856445
20
94.938535690307617
10
-288.32941055297852
20
94.860954284667969
10
-288.41495513916016
20
94.78917121887207
10
-288.50530624389648
20
94.723529815673828
10
-288.60002517700195
20
94.664344787597656
10
-288.69861602783203
20
94.611921310424805
10
-288.80064010620117
20
94.566488265991211
10
-288.90558242797852
20
94.528303146362305
10
-289.0129280090332
20
94.497518539428711
10
-289.1221809387207
20
94.474296569824219
10
-289.23276901245117
20
94.458751678466797
10
-289.34417724609375
20
94.450960159301758
10
-295.8558464050293
20
94.450960159301758
10
-295.96725463867188
20
94.458751678466797
10
-296.07784271240234
20
94.474296569824219
10
-296.18707656860352
20
94.497518539428711
10
-296.29444122314453
20
94.528303146362305
10
-296.39938354492188
20
94.566488265991211
10
-296.50140762329102
20
94.611921310424805
10
-296.60001754760742
20
94.664344787597656
10
-296.69471740722656
20
94.723529815673828
10
-296.78506851196289
20
94.78917121887207
10
-296.87061309814453
20
94.860954284667969
10
-296.95095062255859
20
94.938535690307617
10
-297.02568054199219
20
95.021524429321289
10
-297.09444046020508
20
95.109529495239258
10
-297.15688705444336
20
95.202121734619141
10
-297.21273422241211
20
95.298833847045898
10
-297.26167678833008
20
95.399208068847656
10
-297.30352401733398
20
95.502758026123047
10
-297.33802795410156
20
95.608968734741211
10
-297.36505508422852
20
95.717325210571289
10
-297.38443374633789
20
95.827312469482422
10
-297.3961067199707
20
95.938377380371094
0
LWPOLYLINE
5
184
100
AcDbEntity
8
0
100
AcDbPolyline
90
90
70
1
43
0.0
10
-236.15585327148438
20
57.350959777832031
10
-229.6441650390625
20
57.350959777832031
10
-229.53277587890625
20
57.35875129699707
10
-229.42218780517578
20
57.374296188354492
10
-229.31293487548828
20
57.397518157958984
10
-229.20558929443359
20
57.428293228149414
10
-229.10064697265625
20
57.466497421264648
10
-228.99860382080078
20
57.511920928955078
10
-228.9000129699707
20
57.56434440612793
10
-228.80531311035156
20
57.623529434204102
10
-228.71494293212891
20
57.689170837402344
10
-228.62941741943359
20
57.760953903198242
10
-228.54907989501953
20
57.838535308837891
10
-228.47434997558594
20
57.921524047851562
10
-228.40557098388672
20
58.009529113769531
10
-228.34312438964844
20
58.10211181640625
10
-228.28729629516602
20
58.198833465576172
10
-228.23833465576172
20
58.29920768737793
10
-228.19650650024414
20
58.40275764465332
10
-228.16200256347656
20
58.508968353271484
10
-228.13497543334961
20
58.617324829101562
10
-228.11557769775391
20
58.727312088012695
10
-228.10390472412109
20
58.838376998901367
10
-228.10001373291016
20
58.949985504150391
10
-228.10390472412109
20
59.061594009399414
10
-228.11557769775391
20
59.172658920288086
10
-228.13497543334961
20
59.282646179199219
10
-228.16200256347656
20
59.391012191772461
10
-228.19650650024414
20
59.497213363647461
10
-228.23833465576172
20
59.600763320922852
10
-228.28729629516602
20
59.701147079467773
10
-228.34312438964844
20
59.797859191894531
10
-228.40557098388672
20
59.89044189453125
10
-228.47434997558594
20
59.978446960449219
10
-228.54907989501953
20
60.061445236206055
10
-228.62941741943359
20
60.139017105102539
10
-228.71494293212891
20
60.210800170898438
10
-228.80531311035156
20
60.27644157409668
10
-228.9000129699707
20
60.335626602172852
10
-228.99860382080078
20
60.388059616088867
10
-229.10064697265625
20
60.433483123779297
10
-229.20558929443359
20
60.471677780151367
10
-229.31293487548828
20
60.502462387084961
10
-229.42218780517578
20
60.525684356689453
10
-229.53277587890625
20
60.541219711303711
10
-229.6441650390625
20
60.54901123046875
10
-236.15585327148438
20
60.54901123046875
10
-236.26724243164062
20
60.541219711303711
10
-236.37784957885742
20
60.525684356689453
10
-236.48708343505859
20
60.502462387084961
10
-236.59442901611328
20
60.471677780151367
10
-236.69937133789062
20
60.433483123779297
10
-236.80141448974609
20
60.388059616088867
10
-236.9000244140625
20
60.335626602172852
10
-236.99470520019531
20
60.27644157409668
10
-237.08507537841797
20
60.210800170898438
10
-237.17061996459961
20
60.139017105102539
10
-237.25095748901367
20
60.061445236206055
10
-237.32566833496094
20
59.978446960449219
10
-237.39444732666016
20
59.89044189453125
10
-237.45689392089844
20
59.797859191894531
10
-237.51274108886719
20
59.701147079467773
10
-237.56168365478516
20
59.600763320922852
10
-237.60353088378906
20
59.497213363647461
10
-237.63801574707031
20
59.391012191772461
10
-237.66506195068359
20
59.282646179199219
10
-237.68444061279297
20
59.172658920288086
10
-237.69611358642578
20
59.061594009399414
10
-237.70000457763672
20
58.949985504150391
10
-237.69611358642578
20
58.838376998901367
10
-237.68444061279297
20
58.727312088012695
10
-237.66506195068359
20
58.617324829101562
10
-237.63801574707031
20
58.508968353271484
10
-237.60353088378906
20
58.40275764465332
10
-237.56168365478516
20
58.29920768737793
10
-237.51274108886719
20
58.198833465576172
10
-237.45689392089844
20
58.10211181640625
10
-237.39444732666016
20
58.009529113769531
10
-237.32566833496094
20
57.921524047851562
10
-237.25095748901367
20
57.838535308837891
10
-237.17061996459961
20
57.760953903198242
10
-237.08507537841797
20
57.689170837402344
10
-236.99470520019531
20
57.623529434204102
10
-236.9000244140625
20
57.56434440612793
10
-236.80141448974609
20
57.511920928955078
10
-236.69937133789062
20
57.466497421264648
10
-236.59442901611328
20
57.428293228149414
10
-236.48708343505859
20
57.397518157958984
10
-236.37784957885742
20
57.374296188354492
10
-236.26724243164062
20
57.35875129699707
0
LWPOLYLINE
5
185
100
AcDbEntity
8
0
100
AcDbPolyline
90
90
70
1
43
0.0
10
-295.96725463867188
20
57.35875129699707
10
-295.8558464050293
20
57.350959777832031
10
-289.34417724609375
20
57.350959777832031
10
-289.23276901245117
20
57.35875129699707
10
-289.1221809387207
20
57.374296188354492
10
-289.0129280090332
20
57.397518157958984
10
-288.90558242797852
20
57.428293228149414
10
-288.80064010620117
20
57.466497421264648
10
-288.69861602783203
20
57.511920928955078
10
-288.60002517700195
20
57.56434440612793
10
-288.50530624389648
20
57.623529434204102
10
-288.41495513916016
20
57.689170837402344
10
-288.32941055297852
20
57.760953903198242
10
-288.24907302856445
20
57.838535308837891
10
-288.17434310913086
20
57.921524047851562
10
-288.10558319091797
20
58.009529113769531
10
-288.04313659667969
20
58.10211181640625
10
-287.98730850219727
20
58.198833465576172
10
-287.93832778930664
20
58.29920768737793
10
-287.89649963378906
20
58.40275764465332
10
-287.86199569702148
20
58.508968353271484
10
-287.83496856689453
20
58.617324829101562
10
-287.81557083129883
20
58.727312088012695
10
-287.80389785766602
20
58.838376998901367
10
-287.80000686645508
20
58.949985504150391
10
-287.80389785766602
20
59.061594009399414
10
-287.81557083129883
20
59.172658920288086
10
-287.83496856689453
20
59.282646179199219
10
-287.86199569702148
20
59.391012191772461
10
-287.89649963378906
20
59.497213363647461
10
-287.93832778930664
20
59.600763320922852
10
-287.98730850219727
20
59.701147079467773
10
-288.04313659667969
20
59.797859191894531
10
-288.10558319091797
20
59.89044189453125
10
-288.17434310913086
20
59.978446960449219
10
-288.24907302856445
20
60.061445236206055
10
-288.32941055297852
20
60.139017105102539
10
-288.41495513916016
20
60.210800170898438
10
-288.50530624389648
20
60.27644157409668
10
-288.60002517700195
20
60.335626602172852
10
-288.69861602783203
20
60.388059616088867
10
-288.80064010620117
20
60.433483123779297
10
-288.90558242797852
20
60.471677780151367
10
-289.0129280090332
20
60.502462387084961
10
-289.1221809387207
20
60.525684356689453
10
-289.23276901245117
20
60.541219711303711
10
-289.34417724609375
20
60.54901123046875
10
-295.8558464050293
20
60.54901123046875
10
-295.96725463867188
20
60.541219711303711
10
-296.07784271240234
20
60.525684356689453
10
-296.18707656860352
20
60.502462387084961
10
-296.29444122314453
20
60.471677780151367
10
-296.39938354492188
20
60.433483123779297
10
-296.50140762329102
20
60.388059616088867
10
-296.60001754760742
20
60.335626602172852
10
-296.69471740722656
20
60.27644157409668
10
-296.78506851196289
20
60.210800170898438
10
-296.87061309814453
20
60.139017105102539
10
-296.95095062255859
20
60.061445236206055
10
-297.02568054199219
20
59.978446960449219
10
-297.09444046020508
20
59.89044189453125
10
-297.15688705444336
20
59.797859191894531
10
-297.21273422241211
20
59.701147079467773
10
-297.26167678833008
20
59.600763320922852
10
-297.30352401733398
20
59.497213363647461
10
-297.33802795410156
20
59.391012191772461
10
-297.36505508422852
20
59.282646179199219
10
-297.38443374633789
20
59.172658920288086
10
-297.3961067199707
20
59.061594009399414
10
-297.39999771118164
20
58.949985504150391
10
-297.3961067199707
20
58.838376998901367
10
-297.38443374633789
20
58.727312088012695
10
-297.36505508422852
20
58.617324829101562
10
-297.33802795410156
20
58.508968353271484
10
-297.30352401733398
20
58.40275764465332
10
-297.26167678833008
20
58.29920768737793
10
-297.21273422241211
20
58.198833465576172
10
-297.15688705444336
20
58.10211181640625
10
-297.09444046020508
20
58.009529113769531
10
-297.02568054199219
20
57.921524047851562
10
-296.95095062255859
20
57.838535308837891
10
-296.87061309814453
20
57.760953903198242
10
-296.78506851196289
20
57.689170837402344
10
-296.69471740722656
20
57.623529434204102
10
-296.60001754760742
20
57.56434440612793
10
-296.50140762329102
20
57.511920928955078
10
-296.39938354492188
20
57.466497421264648
10
-296.29444122314453
20
57.428293228149414
10
-296.18707656860352
20
57.397518157958984
10
-296.07784271240234
20
57.374296188354492
0
LWPOLYLINE
5
186
100
AcDbEntity
8
0
100
AcDbPolyline
90
90
70
1
43
0.0
10
-237.70000457763672
20
96.049985885620117
10
-237.69611358642578
20
96.161603927612305
10
-237.68444061279297
20
96.272659301757812
10
-237.66506195068359
20
96.382646560668945
10
-237.63801574707031
20
96.491003036499023
10
-237.60353088378906
20
96.597213745117188
10
-237.56168365478516
20
96.700773239135742
10
-237.51274108886719
20
96.801137924194336
10
-237.45689392089844
20
96.897859573364258
10
-237.39444732666016
20
96.990442276000977
10
-237.32566833496094
20
97.078447341918945
10
-237.25095748901367
20
97.161436080932617
10
-237.17061996459961
20
97.239017486572266
10
-237.08507537841797
20
97.310810089111328
10
-236.99470520019531
20
97.376441955566406
10
-236.9000244140625
20
97.435626983642578
10
-236.80141448974609
20
97.48805046081543
10
-236.69937133789062
20
97.533483505249023
10
-236.59442901611328
20
97.571678161621094
10
-236.48708343505859
20
97.602453231811523
10
-236.37784957885742
20
97.62568473815918
10
-236.26724243164062
20
97.641220092773438
10
-236.15585327148438
20
97.649011611938477
10
-229.6441650390625
20
97.649011611938477
10
-229.53277587890625
20
97.641220092773438
10
-229.42218780517578
20
97.62568473815918
10
-229.31293487548828
20
97.602453231811523
10
-229.20558929443359
20
97.571678161621094
10
-229.10064697265625
20
97.533483505249023
10
-228.99860382080078
20
97.48805046081543
10
-228.9000129699707
20
97.435626983642578
10
-228.80531311035156
20
97.376441955566406
10
-228.71494293212891
20
97.310810089111328
10
-228.62941741943359
20
97.239017486572266
10
-228.54907989501953
20
97.161436080932617
10
-228.47434997558594
20
97.078447341918945
10
-228.40557098388672
20
96.990442276000977
10
-228.34312438964844
20
96.897859573364258
10
-228.28729629516602
20
96.801137924194336
10
-228.23833465576172
20
96.700773239135742
10
-228.19650650024414
20
96.597213745117188
10
-228.16200256347656
20
96.491003036499023
10
-228.13497543334961
20
96.382646560668945
10
-228.11557769775391
20
96.272659301757812
10
-228.10390472412109
20
96.161603927612305
10
-228.10001373291016
20
96.049985885620117
10
-228.10390472412109
20
95.938377380371094
10
-228.11557769775391
20
95.827312469482422
10
-228.13497543334961
20
95.717325210571289
10
-228.16200256347656
20
95.608968734741211
10
-228.19650650024414
20
95.502758026123047
10
-228.23833465576172
20
95.399208068847656
10
-228.28729629516602
20
95.298833847045898
10
-228.34312438964844
20
95.202121734619141
10
-228.40557098388672
20
95.109529495239258
10
-228.47434997558594
20
95.021524429321289
10
-228.54907989501953
20
94.938535690307617
10
-228.62941741943359
20
94.860954284667969
10
-228.71494293212891
20
94.78917121887207
10
-228.80531311035156
20
94.723529815673828
10
-228.9000129699707
20
94.664344787597656
10
-228.99860382080078
20
94.611921310424805
10
-229.10064697265625
20
94.566488265991211
10
-229.20558929443359
20
94.528303146362305
10
-229.31293487548828
20
94.497518539428711
10
-229.42218780517578
20
94.474296569824219
10
-229.53277587890625
20
94.458751678466797
10
-229.6441650390625
20
94.450960159301758
10
-236.15585327148438
20
94.450960159301758
10
-236.26724243164062
20
94.458751678466797
10
-236.37784957885742
20
94.474296569824219
10
-236.48708343505859
20
94.497518539428711
10
-236.59442901611328
20
94.528303146362305
10
-236.69937133789062
20
94.566488265991211
10
-236.80141448974609
20
94.611921310424805
10
-236.9000244140625
20
94.664344787597656
10
-236.99470520019531
20
94.723529815673828
10
-237.08507537841797
20
94.78917121887207
10
-237.17061996459961
20
94.860954284667969
10
-237.25095748901367
20
94.938535690307617
10
-237.32566833496094
20
95.021524429321289
10
-237.39444732666016
20
95.109529495239258
10
-237.45689392089844
20
95.202121734619141
10
-237.51274108886719
20
95.298833847045898
10
-237.56168365478516
20
95.399208068847656
10
-237.60353088378906
20
95.502758026123047
10
-237.63801574707031
20
95.608968734741211
10
-237.66506195068359
20
95.717325210571289
10
-237.68444061279297
20
95.827312469482422
10
-237.69611358642578
20
95.938377380371094
0
LWPOLYLINE
5
187
100
AcDbEntity
8
0
100
AcDbPolyline
90
90
70
1
43
0.0
10
-62.739534378051758
20
128.47719192504883
10
-62.637124061584473
20
128.45542907714844
10
-62.536482810974121
20
128.42657089233398
10
-62.43809700012207
20
128.39076995849609
10
-62.342453002929688
20
128.34817886352539
10
-62.250008583068848
20
128.29902648925781
10
-62.161216735839844
20
128.2435417175293
10
-62.076516151428223
20
128.1820011138916
10
-61.996312141418457
20
128.11470031738281
10
-61.920995712280273
20
128.04197311401367
10
-61.85093879699707
20
127.96417236328125
10
-61.786484718322754
20
127.88166046142578
10
-61.727933883666992
20
127.79485702514648
10
-61.675586700439453
20
127.70420074462891
10
-61.629691123962402
20
127.61009216308594
10
-61.590466499328613
20
127.51301765441895
10
-61.558117866516113
20
127.41344451904297
10
-61.532788276672363
20
127.31185913085938
10
-61.514606475830078
20
127.20874786376953
10
-61.503663063049316
20
127.1046257019043
10
-61.500005722045898
20
126.9999885559082
10
-61.503663063049316
20
126.89535140991211
10
-61.514606475830078
20
126.79122924804688
10
-61.532788276672363
20
126.68811798095703
10
-61.558117866516113
20
126.58653259277344
10
-61.590466499328613
20
126.4869499206543
10
-61.629691123962402
20
126.38988494873047
10
-61.675586700439453
20
126.2957763671875
10
-61.727933883666992
20
126.20511054992676
10
-61.786484718322754
20
126.11831665039062
10
-61.85093879699707
20
126.03580474853516
10
-61.920995712280273
20
125.95800399780273
10
-61.996312141418457
20
125.88527679443359
10
-62.076516151428223
20
125.81796646118164
10
-62.161216735839844
20
125.75643539428711
10
-62.250008583068848
20
125.70095062255859
10
-62.342453002929688
20
125.65179824829102
10
-62.43809700012207
20
125.60920715332031
10
-62.536482810974121
20
125.57340621948242
10
-62.637124061584473
20
125.54454803466797
10
-62.739534378051758
20
125.52277565002441
10
-62.843213081359863
20
125.50820350646973
10
-62.947659492492676
20
125.50090789794922
10
-63.052353858947754
20
125.50090789794922
10
-63.156800270080566
20
125.50820350646973
10
-63.260478973388672
20
125.52277565002441
10
-63.362889289855957
20
125.54454803466797
10
-63.463530540466309
20
125.57340621948242
10
-63.561916351318359
20
125.60920715332031
10
-63.657560348510742
20
125.65179824829102
10
-63.750004768371582
20
125.70095062255859
10
-63.838796615600586
20
125.75643539428711
10
-63.923497200012207
20
125.81796646118164
10
-64.003701210021973
20
125.88527679443359
10
-64.079017639160156
20
125.95800399780273
10
-64.149074554443359
20
126.03580474853516
10
-64.213528633117676
20
126.11831665039062
10
-64.272079467773438
20
126.20511054992676
10
-64.324426651000977
20
126.2957763671875
10
-64.370322227478027
20
126.38988494873047
10
-64.409546852111816
20
126.4869499206543
10
-64.441895484924316
20
126.58653259277344
10
-64.467225074768066
20
126.68811798095703
10
-64.485406875610352
20
126.79122924804688
10
-64.496350288391113
20
126.89535140991211
10
-64.500007629394531
20
126.9999885559082
10
-64.496350288391113
20
127.1046257019043
10
-64.485406875610352
20
127.20874786376953
10
-64.467225074768066
20
127.31185913085938
10
-64.441895484924316
20
127.41344451904297
10
-64.409546852111816
20
127.51301765441895
10
-64.370322227478027
20
127.61009216308594
10
-64.324426651000977
20
127.70420074462891
10
-64.272079467773438
20
127.79485702514648
10
-64.213528633117676
20
127.88166046142578
10
-64.149074554443359
20
127.96417236328125
10
-64.079017639160156
20
128.04197311401367
10
-64.003701210021973
20
128.11470031738281
10
-63.923497200012207
20
128.1820011138916
10
-63.838796615600586
20
128.2435417175293
10
-63.750004768371582
20
128.29902648925781
10
-63.657560348510742
20
128.34817886352539
10
-63.561916351318359
20
128.39076995849609
10
-63.463530540466309
20
128.42657089233398
10
-63.362889289855957
20
128.45542907714844
10
-63.260478973388672
20
128.47719192504883
10
-63.156800270080566
20
128.49176406860352
10
-63.052353858947754
20
128.49906921386719
10
-62.947659492492676
20
128.49906921386719
10
-62.843213081359863
20
128.49176406860352
0
LWPOLYLINE
5
188
100
AcDbEntity
8
0
100
AcDbPolyline
90
90
70
1
43
0.0
10
-62.637124061584473
20
174.5445442199707
10
-62.536482810974121
20
174.57340240478516
10
-62.43809700012207
20
174.60922241210938
10
-62.342453002929688
20
174.65179443359375
10
-62.250008583068848
20
174.70094680786133
10
-62.161216735839844
20
174.75643157958984
10
-62.076516151428223
20
174.8179817199707
10
-61.996312141418457
20
174.88527297973633
10
-61.920995712280273
20
174.95800018310547
10
-61.85093879699707
20
175.03580093383789
10
-61.786484718322754
20
175.11831283569336
10
-61.727933883666992
20
175.20511627197266
10
-61.675586700439453
20
175.29579162597656
10
-61.629691123962402
20
175.3898811340332
10
-61.590466499328613
20
175.48696517944336
10
-61.558117866516113
20
175.58652877807617
10
-61.532788276672363
20
175.68811416625977
10
-61.514606475830078
20
175.79122543334961
10
-61.503663063049316
20
175.89534759521484
10
-61.500005722045898
20
175.99998474121094
10
-61.503663063049316
20
176.10462188720703
10
-61.514606475830078
20
176.20874404907227
10
-61.532788276672363
20
176.31185531616211
10
-61.558117866516113
20
176.4134407043457
10
-61.590466499328613
20
176.51302337646484
10
-61.629691123962402
20
176.61008834838867
10
-61.675586700439453
20
176.70419692993164
10
-61.727933883666992
20
176.79487228393555
10
-61.786484718322754
20
176.88167572021484
10
-61.85093879699707
20
176.96416854858398
10
-61.920995712280273
20
177.04196929931641
10
-61.996312141418457
20
177.11469650268555
10
-62.076516151428223
20
177.1820068359375
10
-62.161216735839844
20
177.24353790283203
10
-62.250008583068848
20
177.29902267456055
10
-62.342453002929688
20
177.34817504882812
10
-62.43809700012207
20
177.39076614379883
10
-62.536482810974121
20
177.42656707763672
10
-62.637124061584473
20
177.45542526245117
10
-62.739534378051758
20
177.47720718383789
10
-62.843213081359863
20
177.49177932739258
10
-62.947659492492676
20
177.49906539916992
10
-63.052353858947754
20
177.49906539916992
10
-63.156800270080566
20
177.49177932739258
10
-63.260478973388672
20
177.47720718383789
10
-63.362889289855957
20
177.45542526245117
10
-63.463530540466309
20
177.42656707763672
10
-63.561916351318359
20
177.39076614379883
10
-63.657560348510742
20
177.34817504882812
10
-63.750004768371582
20
177.29902267456055
10
-63.838796615600586
20
177.24353790283203
10
-63.923497200012207
20
177.1820068359375
10
-64.003701210021973
20
177.11469650268555
10
-64.079017639160156
20
177.04196929931641
10
-64.149074554443359
20
176.96416854858398
10
-64.213528633117676
20
176.88167572021484
10
-64.272079467773438
20
176.79487228393555
10
-64.324426651000977
20
176.70419692993164
10
-64.370322227478027
20
176.61008834838867
10
-64.409546852111816
20
176.51302337646484
10
-64.441895484924316
20
176.4134407043457
10
-64.467225074768066
20
176.31185531616211
10
-64.485406875610352
20
176.20874404907227
10
-64.496350288391113
20
176.10462188720703
10
-64.500007629394531
20
175.99998474121094
10
-64.496350288391113
20
175.89534759521484
10
-64.485406875610352
20
175.79122543334961
10
-64.467225074768066
20
175.68811416625977
10
-64.441895484924316
20
175.58652877807617
10
-64.409546852111816
20
175.48696517944336
10
-64.370322227478027
20
175.3898811340332
10
-64.324426651000977
20
175.29579162597656
10
-64.272079467773438
20
175.20511627197266
10
-64.213528633117676
20
175.11831283569336
10
-64.149074554443359
20
175.03580093383789
10
-64.079017639160156
20
174.95800018310547
10
-64.003701210021973
20
174.88527297973633
10
-63.923497200012207
20
174.8179817199707
10
-63.838796615600586
20
174.75643157958984
10
-63.750004768371582
20
174.70094680786133
10
-63.657560348510742
20
174.65179443359375
10
-63.561916351318359
20
174.60922241210938
10
-63.463530540466309
20
174.57340240478516
10
-63.362889289855957
20
174.5445442199707
10
-63.260478973388672
20
174.52278137207031
10
-63.156800270080566
20
174.50820922851562
10
-63.052353858947754
20
174.50090408325195
10
-62.947659492492676
20
174.50090408325195
10
-62.843213081359863
20
174.50820922851562
10
-62.739534378051758
20
174.52278137207031
0
LWPOLYLINE
5
189
100
AcDbEntity
8
0
100
AcDbPolyline
90
50
70
1
43
0.0
10
-23.900003433227539
20
132.48998641967773
10
-23.900003433227539
20
28.509979248046875
10
-21.89000129699707
20
28.509979248046875
10
-21.89000129699707
20
18.509979248046875
10
-23.900003433227539
20
18.509979248046875
10
-23.900003433227539
20
7.4999809265136719
10
-125.5000114440918
20
7.4999809265136719
10
-125.5000114440918
20
18.509979248046875
10
-127.5200080871582
20
18.509979248046875
10
-127.5200080871582
20
28.509979248046875
10
-125.5000114440918
20
28.509979248046875
10
-125.5000114440918
20
124.82744216918945
10
-125.5677318572998
20
124.9662971496582
10
-125.69847106933594
20
125.28988838195801
10
-125.80631256103516
20
125.62179565429688
10
-125.8907413482666
20
125.96042633056641
10
-125.95134735107422
20
126.30412101745605
10
-125.98782539367676
20
126.65121078491211
10
-126.00000381469727
20
126.9999885559082
10
-125.98782539367676
20
127.3487663269043
10
-125.95134735107422
20
127.69584655761719
10
-125.8907413482666
20
128.03955078125
10
-125.80631256103516
20
128.37817192077637
10
-125.69847106933594
20
128.71007919311523
10
-125.5677318572998
20
129.03367042541504
10
-125.5000114440918
20
129.17253494262695
10
-125.5000114440918
20
132.48998641967773
10
-127.5200080871582
20
132.48998641967773
10
-127.5200080871582
20
142.48998641967773
10
-125.5000114440918
20
142.48998641967773
10
-125.5000114440918
20
173.82743835449219
10
-125.5677318572998
20
173.96631240844727
10
-125.69847106933594
20
174.28989410400391
10
-125.80631256103516
20
174.62181091308594
10
-125.8907413482666
20
174.96042251586914
10
-125.95134735107422
20
175.30412673950195
10
-125.98782539367676
20
175.65120697021484
10
-126.00000381469727
20
175.99998474121094
10
-125.98782539367676
20
176.34876251220703
10
-125.95134735107422
20
176.69586181640625
10
-125.8907413482666
20
177.03954696655273
10
-125.80631256103516
20
177.37817764282227
10
-125.69847106933594
20
177.7100944519043
10
-125.5677318572998
20
178.03367614746094
10
-125.5000114440918
20
178.17253112792969
10
-125.5000114440918
20
181.49999618530273
10
-23.900003433227539
20
181.49999618530273
10
-23.900003433227539
20
142.48998641967773
10
-21.89000129699707
20
142.48998641967773
10
-21.89000129699707
20
132.48998641967773
0
LWPOLYLINE
5
190
100
AcDbEntity
8
0
100
AcDbPolyline
90
90
70
1
43
0.0
10
-119.50366020202637
20
126.89535140991211
10
-119.50000762939453
20
126.9999885559082
10
-119.50366020202637
20
127.1046257019043
10
-119.51460838317871
20
127.20874786376953
10
-119.53278541564941
20
127.31185913085938
10
-119.55811500549316
20
127.41344451904297
10
-119.59047317504883
20
127.51301765441895
10
-119.62968826293945
20
127.61009216308594
10
-119.67558860778809
20
127.70420074462891
10
-119.72793579101562
20
127.79485702514648
10
-119.7864818572998
20
127.88166046142578
10
-119.8509407043457
20
127.96417236328125
10
-119.92099761962891
20
128.04197311401367
10
-119.99630928039551
20
128.11470031738281
10
-120.07651329040527
20
128.1820011138916
10
-120.16121864318848
20
128.2435417175293
10
-120.2500057220459
20
128.29902648925781
10
-120.34245491027832
20
128.34817886352539
10
-120.4380989074707
20
128.39076995849609
10
-120.53647994995117
20
128.42657089233398
10
-120.63712120056152
20
128.45542907714844
10
-120.73953628540039
20
128.47719192504883
10
-120.84321975708008
20
128.49176406860352
10
-120.94765663146973
20
128.49906921386719
10
-121.05236053466797
20
128.49906921386719
10
-121.15679740905762
20
128.49176406860352
10
-121.2604808807373
20
128.47719192504883
10
-121.36288642883301
20
128.45542907714844
10
-121.46352767944336
20
128.42657089233398
10
-121.56191825866699
20
128.39076995849609
10
-121.65756225585938
20
128.34817886352539
10
-121.7500114440918
20
128.29902648925781
10
-121.83879852294922
20
128.2435417175293
10
-121.92350387573242
20
128.1820011138916
10
-122.00370788574219
20
128.11470031738281
10
-122.07901954650879
20
128.04197311401367
10
-122.14907646179199
20
127.96417236328125
10
-122.21353530883789
20
127.88166046142578
10
-122.27208137512207
20
127.79485702514648
10
-122.32442855834961
20
127.70420074462891
10
-122.37032890319824
20
127.61009216308594
10
-122.40954399108887
20
127.51301765441895
10
-122.44190216064453
20
127.41344451904297
10
-122.46723175048828
20
127.31185913085938
10
-122.48540878295898
20
127.20874786376953
10
-122.49635696411133
20
127.1046257019043
10
-122.50000953674316
20
126.9999885559082
10
-122.49635696411133
20
126.89535140991211
10
-122.48540878295898
20
126.79122924804688
10
-122.46723175048828
20
126.68811798095703
10
-122.44190216064453
20
126.58653259277344
10
-122.40954399108887
20
126.4869499206543
10
-122.37032890319824
20
126.38988494873047
10
-122.32442855834961
20
126.2957763671875
10
-122.27208137512207
20
126.20511054992676
10
-122.21353530883789
20
126.11831665039062
10
-122.14907646179199
20
126.03580474853516
10
-122.07901954650879
20
125.95800399780273
10
-122.00370788574219
20
125.88527679443359
10
-121.92350387573242
20
125.81796646118164
10
-121.83879852294922
20
125.75643539428711
10
-121.7500114440918
20
125.70095062255859
10
-121.65756225585938
20
125.65179824829102
10
-121.56191825866699
20
125.60920715332031
10
-121.46352767944336
20
125.57340621948242
10
-121.36288642883301
20
125.54454803466797
10
-121.2604808807373
20
125.52277565002441
10
-121.15679740905762
20
125.50820350646973
10
-121.05236053466797
20
125.50090789794922
10
-120.94765663146973
20
125.50090789794922
10
-120.84321975708008
20
125.50820350646973
10
-120.73953628540039
20
125.52277565002441
10
-120.63712120056152
20
125.54454803466797
10
-120.53647994995117
20
125.57340621948242
10
-120.4380989074707
20
125.60920715332031
10
-120.34245491027832
20
125.65179824829102
10
-120.2500057220459
20
125.70095062255859
10
-120.16121864318848
20
125.75643539428711
10
-120.07651329040527
20
125.81796646118164
10
-119.99630928039551
20
125.88527679443359
10
-119.92099761962891
20
125.95800399780273
10
-119.8509407043457
20
126.03580474853516
10
-119.7864818572998
20
126.11831665039062
10
-119.72793579101562
20
126.20511054992676
10
-119.67558860778809
20
126.2957763671875
10
-119.62968826293945
20
126.38988494873047
10
-119.59047317504883
20
126.4869499206543
10
-119.55811500549316
20
126.58653259277344
10
-119.53278541564941
20
126.68811798095703
10
-119.51460838317871
20
126.79122924804688
0
LWPOLYLINE
5
191
100
AcDbEntity
8
0
100
AcDbPolyline
90
90
70
1
43
0.0
10
-119.92099761962891
20
174.95800018310547
10
-119.8509407043457
20
175.03580093383789
10
-119.7864818572998
20
175.11831283569336
10
-119.72793579101562
20
175.20511627197266
10
-119.67558860778809
20
175.29579162597656
10
-119.62968826293945
20
175.3898811340332
10
-119.59047317504883
20
175.48696517944336
10
-119.55811500549316
20
175.58652877807617
10
-119.53278541564941
20
175.68811416625977
10
-119.51460838317871
20
175.79122543334961
10
-119.50366020202637
20
175.89534759521484
10
-119.50000762939453
20
175.99998474121094
10
-119.50366020202637
20
176.10462188720703
10
-119.51460838317871
20
176.20874404907227
10
-119.53278541564941
20
176.31185531616211
10
-119.55811500549316
20
176.4134407043457
10
-119.59047317504883
20
176.51302337646484
10
-119.62968826293945
20
176.61008834838867
10
-119.67558860778809
20
176.70419692993164
10
-119.72793579101562
20
176.79487228393555
10
-119.7864818572998
20
176.88167572021484
10
-119.8509407043457
20
176.96416854858398
10
-119.92099761962891
20
177.04196929931641
10
-119.99630928039551
20
177.11469650268555
10
-120.07651329040527
20
177.1820068359375
10
-120.16121864318848
20
177.24353790283203
10
-120.2500057220459
20
177.29902267456055
10
-120.34245491027832
20
177.34817504882812
10
-120.4380989074707
20
177.39076614379883
10
-120.53647994995117
20
177.42656707763672
10
-120.63712120056152
20
177.45542526245117
10
-120.73953628540039
20
177.47720718383789
10
-120.84321975708008
20
177.49177932739258
10
-120.94765663146973
20
177.49906539916992
10
-121.05236053466797
20
177.49906539916992
10
-121.15679740905762
20
177.49177932739258
10
-121.2604808807373
20
177.47720718383789
10
-121.36288642883301
20
177.45542526245117
10
-121.46352767944336
20
177.42656707763672
10
-121.56191825866699
20
177.39076614379883
10
-121.65756225585938
20
177.34817504882812
10
-121.7500114440918
20
177.29902267456055
10
-121.83879852294922
20
177.24353790283203
10
-121.92350387573242
20
177.1820068359375
10
-122.00370788574219
20
177.11469650268555
10
-122.07901954650879
20
177.04196929931641
10
-122.14907646179199
20
176.96416854858398
10
-122.21353530883789
20
176.88167572021484
10
-122.27208137512207
20
176.79487228393555
10
-122.32442855834961
20
176.70419692993164
10
-122.37032890319824
20
176.61008834838867
10
-122.40954399108887
20
176.51302337646484
10
-122.44190216064453
20
176.4134407043457
10
-122.46723175048828
20
176.31185531616211
10
-122.48540878295898
20
176.20874404907227
10
-122.49635696411133
20
176.10462188720703
10
-122.50000953674316
20
175.99998474121094
10
-122.49635696411133
20
175.89534759521484
10
-122.48540878295898
20
175.79122543334961
10
-122.46723175048828
20
175.68811416625977
10
-122.44190216064453
20
175.58652877807617
10
-122.40954399108887
20
175.48696517944336
10
-122.37032890319824
20
175.3898811340332
10
-122.32442855834961
20
175.29579162597656
10
-122.27208137512207
20
175.20511627197266
10
-122.21353530883789
20
175.11831283569336
10
-122.14907646179199
20
175.03580093383789
10
-122.07901954650879
20
174.95800018310547
10
-122.00370788574219
20
174.88527297973633
10
-121.92350387573242
20
174.8179817199707
10
-121.83879852294922
20
174.75643157958984
10
-121.7500114440918
20
174.70094680786133
10
-121.65756225585938
20
174.65179443359375
10
-121.56191825866699
20
174.60922241210938
10
-121.46352767944336
20
174.57340240478516
10
-121.36288642883301
20
174.5445442199707
10
-121.2604808807373
20
174.52278137207031
10
-121.15679740905762
20
174.50820922851562
10
-121.05236053466797
20
174.50090408325195
10
-120.94765663146973
20
174.50090408325195
10
-120.84321975708008
20
174.50820922851562
10
-120.73953628540039
20
174.52278137207031
10
-120.63712120056152
20
174.5445442199707
10
-120.53647994995117
20
174.57340240478516
10
-120.4380989074707
20
174.60922241210938
10
-120.34245491027832
20
174.65179443359375
10
-120.2500057220459
20
174.70094680786133
10
-120.16121864318848
20
174.75643157958984
10
-120.07651329040527
20
174.8179817199707
10
-119.99630928039551
20
174.88527297973633
0
ENDSEC
0
SECTION
2
OBJECTS
0
DICTIONARY
5
C
100
AcDbDictionary
3
ACAD_GROUP
350
D
3
ACAD_MLINESTYLE
350
17
0
DICTIONARY
5
D
100
AcDbDictionary
0
DICTIONARY
5
1A
330
C
100
AcDbDictionary
0
DICTIONARY
5
17
100
AcDbDictionary
0
ENDSEC
0
EOF
